<svg xmlns="http://www.w3.org/2000/svg" xmlns:xlink="http://www.w3.org/1999/xlink" version="1.1" x="0px" y="0px" viewBox="0 0 100 125" style="enable-background:new 0 0 100 100;" xml:space="preserve"><g><path d="M27.5,45.1c-15,10.1-23.9,20.5-21.1,26c2.1,4,10.2,4.4,21.1,1.8V45.1z"/><path d="M92,27c-3.6-7.1-25.8-3-49.4,9.2c-1.9,1-3.7,1.9-5.4,2.9h31.3v15.5C84.9,44,95,32.7,92,27z"/></g><circle cx="58.9" cy="55.8" r="7.6"/><circle cx="37.7" cy="55.8" r="7.6"/><polyline points="58.9,48.2 68.6,48.2 68.6,57.5 66.3,57.5 "/><path d="M51.2,65.6c-0.8,0-1.5,0.7-1.5,1.5h3C52.7,66.3,52,65.6,51.2,65.6z"/><path d="M45.4,65.6c-0.8,0-1.5,0.7-1.5,1.5h3C46.9,66.3,46.2,65.6,45.4,65.6z"/><polygon points="49.6,73.1 47.8,74.1 46,73 39.2,75 57.4,75.3 "/><path d="M23.6,47.9c0,0-0.8-14,0-17.6S26.8,20,36,15.6s21.5-4,23.8-0.2l4.4,8.1"/><polygon points="52.8,44 52.8,47.9 63.1,44.1 "/><path d="M42.3,56.3L42.3,56.3c0.9-2.6,3.2-4.4,6.1-4.4c2.8,0,5.2,1.8,6,4.4h0v-2.6c-1.4-1.8-3.6-3-6.1-3c-2.5,0-4.7,1.2-6.1,3V56.3z  "/><text x="0" y="115" fill="#000000" font-size="5px" font-weight="bold" font-family="'Helvetica Neue', Helvetica, Arial-Unicode, Arial, Sans-serif">Created by Ariel Kotzer</text><text x="0" y="120" fill="#000000" font-size="5px" font-weight="bold" font-family="'Helvetica Neue', Helvetica, Arial-Unicode, Arial, Sans-serif">from the Noun Project</text></svg>