<svg xmlns="http://www.w3.org/2000/svg" xmlns:xlink="http://www.w3.org/1999/xlink" version="1.1" x="0px" y="0px" viewBox="0 0 100 125" style="enable-background:new 0 0 100 100;" xml:space="preserve"><path d="M14.5385323,27.4023609c0.3738747,0.2486782,0.7961988,0.3678722,1.2138062,0.3678722  c0.7100201,0,1.4067459-0.3442898,1.8299274-0.9797058c1.2695446-1.90839,4.2438202-4.2957001,7.0718899-5.6767197  c2.7200241-1.3287125,5.7564697-2.1176224,8.7813377-2.2822647c1.210804-0.0655994,2.1386337-1.1001873,2.0726051-2.3109913  c-0.0656013-1.2099476-1.0903244-2.1433477-2.3109932-2.0726032c-3.6062603,0.195941-7.2266693,1.1366301-10.4697762,2.7204514  c-3.5586681,1.7381744-7.0950422,4.6275578-8.8006306,7.1902275C13.2552681,25.367918,13.5288134,26.7305012,14.5385323,27.4023609z  "/><path d="M66.5645599,18.831543c3.0252991,0.1646423,6.0617447,0.9535522,8.7817688,2.2822647  c2.828064,1.3810196,5.8019104,3.7687588,7.0718842,5.6767197c0.4227524,0.635416,1.1190567,0.9797058,1.829071,0.9797058  c0.4176102,0,0.8403625-0.119194,1.2142334-0.3678722c1.0092926-0.6714306,1.283699-2.0344429,0.611412-3.0437336  c-1.7038803-2.5622425-5.2411118-5.4516239-8.7997742-7.1902275c-3.2431107-1.5838213-6.8635178-2.5245104-10.4702072-2.7204514  c-1.1979446-0.0857515-2.2458191,0.8617983-2.3109894,2.0726032C64.4259262,17.7313557,65.3537521,18.7659435,66.5645599,18.831543z  "/><path d="M20.7597713,32.8544121c-0.8545094,0.8600845-0.8502216,2.2501106,0.0098629,3.1046181  c0.4283257,0.4253273,0.9878521,0.637989,1.5473766,0.637989c0.5642433,0,1.1284847-0.2160912,1.5572395-0.64785  c1.9173946-1.9298286,4.7741909-3.0368729,7.8380756-3.0368729s5.920681,1.106617,7.8380775,3.0364456  c0.8553658,0.8600807,2.2445335,0.8643684,3.1046143,0.009861c0.8600845-0.8545113,0.8643723-2.2445335,0.0098648-3.1046181  c-2.7358894-2.7530384-6.7280312-4.3321438-10.9525566-4.3321438C27.4873714,28.521841,23.4952316,30.1009464,20.7597713,32.8544121  z"/><path d="M58.8924103,36.5970192c0.5642433,0,1.1284866-0.2160912,1.5572395-0.64785  c1.9173965-1.9298286,4.7737617-3.0368729,7.8376503-3.0368729c3.0638809,0,5.9211121,1.106617,7.838501,3.0364456  c0.8540802,0.8600807,2.2449646,0.8643684,3.104187,0.009861c0.8600845-0.8545113,0.8643723-2.2445335,0.0102921-3.1046181  c-2.7363129-2.7530384-6.7280273-4.3321438-10.95298-4.3321438c-4.2249603,0-8.2166672,1.5791054-10.9521294,4.332571  c-0.8549347,0.8600845-0.8497925,2.2501106,0.0102921,3.1046181C57.7733612,36.3843575,58.3333168,36.5970192,58.8924103,36.5970192  z"/><path d="M71.8554001,50.8882904c-7.1636429-1.4980698-15.3451538-2.3221397-21.8219299-2.2329559  c-6.5320892-0.094326-14.7243156,0.7348862-21.8883877,2.2329559c-12.702734,2.6565666-12.8009186,5.2651138-12.8480816,6.5196533  c-0.0913248,2.4164658,1.7471771,11.2205276,8.4704895,18.2023773c6.3562984,6.6002579,15.1822243,9.9471207,26.2325363,9.9471207  c11.0507393,0,19.8779564-3.3477173,26.2338219-9.9488373c6.7228851-6.9818497,8.5605316-15.7850533,8.4687729-18.2006607  C84.6554642,56.1542625,84.5577011,53.544857,71.8554001,50.8882904z M80.2225037,58.5297279  c-0.7541809,1.2678299-2.2933578,2.544075-4.7415466,3.6752396v-5.9233627  c2.3311386,0.6462402,4.0350647,1.2864265,4.8012009,1.8106346C80.2675247,58.2200584,80.2478027,58.3664284,80.2225037,58.5297279z   M73.2857285,55.7177353v7.3713226c-1.6675339,0.5879326-3.637558,1.1152496-5.9322586,1.5552063V54.5111656  C69.5090866,54.8809128,71.5149155,55.2932701,73.2857285,55.7177353z M57.6001434,65.8027573V53.2953758  c2.5826073,0.1981392,5.137989,0.4988594,7.5580978,0.862709v10.8640175  C62.9131165,65.3671951,60.4000778,65.634201,57.6001434,65.8027573z M65.1582413,67.212616v10.9481049  c-2.3058472,1.0653458-4.8272476,1.848526-7.5580978,2.3466873V67.9910736  C60.3019447,67.8251953,62.8291359,67.5647278,65.1582413,67.212616z M50.0334702,53.0457878  c1.7619171-0.0295296,3.565155,0.0122719,5.3714447,0.1076698v12.7593842  c-1.5795326,0.062706-3.2392464,0.0967941-4.9881363,0.0967941c-0.1384888,0-0.280407-0.0008621-0.4201813-0.0008621  c-1.8999748,0.0028458-3.6975861-0.0333862-5.4010315-0.1030045V53.1535645  C46.4228668,53.0570412,48.248455,53.0150795,50.0334702,53.0457878z M34.8418121,65.0074692v-10.850296  c2.4185562-0.363369,4.9737206-0.6636581,7.5585251-0.8617439v12.496769  C39.6026573,65.6208572,37.0868263,65.3533707,34.8418121,65.0074692z M42.4003372,67.9914474v12.5161209  c-2.7310638-0.4981079-5.2525711-1.2813416-7.5585251-2.3468475v-10.947464  C37.1710777,67.5653687,39.6984825,67.825737,42.4003372,67.9914474z M32.6465836,54.5100403v10.1183014  c-2.2939472-0.4401169-4.2640247-0.9667854-5.9322586-1.5534859V55.71661  C28.4845486,55.2921982,30.4901066,54.879734,32.6465836,54.5100403z M24.5190983,56.2806396v5.9122658  c-2.4459953-1.1266594-3.9872627-2.3973846-4.7414436-3.6625328c-0.0253506-0.1635704-0.0450726-0.3101501-0.0597572-0.4381332  C20.4836006,57.5680847,22.1870441,56.9274178,24.5190983,56.2806396z M20.8580647,62.6356506  c1.0298691,0.7032661,2.2538586,1.3467751,3.6610336,1.9261856v5.0956497  C22.7474823,67.191391,21.5915031,64.7126999,20.8580647,62.6356506z M26.714325,72.3276138v-6.9618073  c1.7664185,0.5761871,3.748127,1.0714035,5.9322586,1.4782944v10.1878128  c-2.1154251-1.2216339-4.0242424-2.7099991-5.7165947-4.4674683C26.854744,72.4863052,26.7880726,72.4061279,26.714325,72.3276138z   M44.5955658,80.8476181V68.1042099c1.6119041,0.0658646,3.2783699,0.100647,5.0005722,0.100647  c0.2675438,0,0.5350876,0.0008621,0.8013458,0c1.7246132,0,3.3934364-0.0348892,5.007431-0.100914v12.7436218  c-1.726059,0.2114868-3.5272598,0.3194275-5.4048882,0.3194275C48.122509,81.1669922,46.3214684,81.0590515,44.5955658,80.8476181z   M67.3534698,77.032074V66.843399c2.1841888-0.4069366,4.1658936-0.9022598,5.9322586-1.4784546v6.96315  c-0.0733185,0.0780869-0.1395645,0.1578369-0.2143784,0.2354889C71.3787308,74.321373,69.4694824,75.8102264,67.3534698,77.032074z   M75.480957,69.657753v-5.0968323c1.4073868-0.5794601,2.6315918-1.2230225,3.6614609-1.926342  C78.4090881,64.711792,77.2529984,67.1909637,75.480957,69.657753z"/><path d="M93.2957382,42.3191872c-1.4672012-1.5246544-3.9608383-2.1210518-6.3730164-2.6973  c-1.8196411-0.4351845-3.7010193-0.8849487-4.4624863-1.6459923c-0.4287567-0.4287529-1.1233444-0.4287529-1.5520935,0  c-0.2143784,0.2143784-0.3215714,0.4952126-0.3215714,0.7760468s0.107193,0.5620995,0.3215714,0.7760468  c0.761467,0.7614708,1.2108002,2.642849,1.6464157,4.4624863c0.5762482,2.4113197,1.1722183,4.9058189,2.6968765,6.3730202  c1.2708282,1.2228088,2.6411285,1.6764336,3.9145355,1.6764336c1.7090149,0,3.2405319-0.8172073,4.1151886-1.6910133  C94.8675537,48.7633781,96.1795425,45.316185,93.2957382,42.3191872z M91.7290649,48.7968216  c-0.6740036,0.6731453-2.8795166,1.9817085-4.9546967-0.014576c-1.0615997-1.0221519-1.5821075-3.1976585-2.08461-5.3024178  c-0.1920776-0.8022003-0.3798752-1.5881081-0.5985413-2.3212814c0.7331772,0.2186661,1.5186539,0.4064598,2.3212814,0.598114  c2.104332,0.5033569,4.2806931,1.0234375,5.3019867,2.08461C94.1240921,46.3451996,91.8276825,48.6982079,91.7290649,48.7968216z"/><path d="M19.0919132,39.5279884c0.2143784-0.2143745,0.3215675-0.4952126,0.3215675-0.7760468  s-0.1071892-0.5616684-0.3215675-0.7760468c-0.4287548-0.4287529-1.1233387-0.4287529-1.5520935,0  c-0.7614689,0.7610435-2.642848,1.2108078-4.4620562,1.6459923c-2.412178,0.5762482-4.9062471,1.1726456-6.3730192,2.6973  c-2.8842371,2.9961433-1.5713882,6.444191,0.0145774,8.0297279c0.8742323,0.873806,2.405746,1.6910133,4.1143365,1.6910133  c1.2734032,0,2.6445627-0.4536247,3.9149647-1.6764336c1.5246544-1.4672012,2.1210518-3.9617004,2.6973-6.3730202  C17.8811092,42.1708374,18.3304443,40.2894592,19.0919132,39.5279884z M15.3111496,43.4798279  c-0.5033588,2.1047592-1.0234385,4.2802658-2.0846081,5.3024178c-2.0773201,1.9988556-4.2815504,0.6877213-4.9551258,0.014576  c-0.0990419-0.0986137-2.3950267-2.451622,0.015007-4.9555511c1.0212946-1.0611725,3.1972284-1.5812531,5.3015594-2.08461  c0.8022013-0.1916542,1.58811-0.3794479,2.3212814-0.598114C15.6905985,41.8917198,15.5028028,42.6776276,15.3111496,43.4798279z"/><text x="0" y="115" fill="#000000" font-size="5px" font-weight="bold" font-family="'Helvetica Neue', Helvetica, Arial-Unicode, Arial, Sans-serif">Created by emilegraphics</text><text x="0" y="120" fill="#000000" font-size="5px" font-weight="bold" font-family="'Helvetica Neue', Helvetica, Arial-Unicode, Arial, Sans-serif">from the Noun Project</text></svg>