<svg xmlns="http://www.w3.org/2000/svg" xmlns:xlink="http://www.w3.org/1999/xlink" version="1.1" x="0px" y="0px" viewBox="141.917 0 56.693 70.86625" enable-background="new 141.917 0 56.693 56.693" xml:space="preserve"><path d="M194.617,33.649c0.248-0.021,0.479-0.16,0.623-0.386c0.129-0.189,0.188-0.438,0.166-0.686  c-0.051-0.555-0.481-0.961-0.969-0.915l-2.054,0.185c0.479-1.822,0.729-3.685,0.729-5.523c0-0.402-0.018-0.813-0.054-1.292  c0-1.795-0.045-4.36-0.251-6.481c-0.025-0.27-0.05-0.521-0.074-0.77c-0.202-2.189-0.339-3.638-1.33-6.363  c-0.522-1.458-2.187-2.554-3.854-2.554c-0.554,0-1.066,0.122-1.521,0.36l-5.014,2.868c-3.189-0.922-6.906-1.389-11.057-1.389  c-4.004,0-7.586,0.438-10.652,1.304l-4.965-2.842l-0.031-0.016c-0.455-0.241-0.969-0.363-1.521-0.363  c-1.669,0-3.328,1.098-3.856,2.555c-0.991,2.73-1.125,4.173-1.331,6.362c-0.021,0.245-0.047,0.501-0.069,0.771  c-0.222,2.23-0.259,4.944-0.247,6.844c-0.025,0.335-0.035,0.674-0.035,1.004c0,1.81,0.275,3.677,0.798,5.524l-2.063-0.182  c-0.491-0.045-0.917,0.363-0.971,0.914c-0.02,0.248,0.038,0.492,0.168,0.686c0.146,0.227,0.374,0.362,0.622,0.39l2.928,0.264  c0.237,0.617,0.501,1.229,0.79,1.837l-3.155,0.748c-0.213,0.046-0.397,0.181-0.517,0.375c-0.141,0.226-0.182,0.518-0.111,0.795  c0.107,0.46,0.479,0.784,0.901,0.784c0.063,0,0.123-0.008,0.188-0.021l3.655-0.861c0.244,0.425,0.508,0.843,0.773,1.253  l-2.541,1.813c-0.176,0.126-0.293,0.319-0.33,0.544c-0.043,0.266,0.027,0.547,0.194,0.779c0.2,0.279,0.507,0.447,0.816,0.447  c0.179,0,0.342-0.056,0.479-0.15l2.535-1.812c0.431,0.558,0.884,1.104,1.357,1.627c4.452,4.892,10.2,7.586,16.191,7.586  c6.465,0,12.457-2.694,16.863-7.59c0.451-0.5,0.885-1.022,1.287-1.556l2.439,1.742c0.137,0.1,0.302,0.15,0.476,0.15  c0.314,0,0.621-0.168,0.821-0.447c0.165-0.232,0.237-0.516,0.193-0.779c-0.039-0.226-0.154-0.416-0.331-0.544l-2.446-1.75  c0.271-0.425,0.537-0.854,0.786-1.293l3.556,0.84c0.061,0.018,0.121,0.021,0.184,0.021c0.427,0,0.799-0.324,0.902-0.787  c0.066-0.277,0.025-0.568-0.115-0.795c-0.119-0.194-0.301-0.329-0.512-0.378l-3.083-0.73c0.281-0.606,0.537-1.229,0.764-1.855  L194.617,33.649z M156.312,30.353c0.396-0.618,0.83-1.303,1.017-2.373c0.717,0.381,1.556,0.6,2.448,0.6  c0.587,0,1.149-0.097,1.67-0.27c-0.162,0.465-0.395,0.837-0.648,1.233c-0.521,0.813-1.11,1.736-1.11,3.507  c0,1.772,0.59,2.695,1.11,3.51c0.469,0.733,0.874,1.367,0.874,2.7s-0.405,1.967-0.874,2.7c-0.389,0.607-0.814,1.276-1.007,2.313  c-1.06-0.692-2.061-1.476-2.986-2.338c0.34-0.654,0.617-1.464,0.617-2.675c0-1.771-0.59-2.694-1.11-3.509  c-0.469-0.733-0.874-1.367-0.874-2.701C155.438,31.719,155.844,31.087,156.312,30.353z M179.523,41.962  c-0.469-0.733-0.874-1.367-0.874-2.7s0.405-1.967,0.874-2.7c0.521-0.814,1.11-1.737,1.11-3.51c0-1.771-0.59-2.693-1.11-3.507  c-0.253-0.396-0.484-0.765-0.646-1.227c0.514,0.167,1.067,0.263,1.645,0.263c0.901,0,1.749-0.224,2.471-0.613  c0.185,1.077,0.62,1.764,1.018,2.385c0.469,0.733,0.874,1.366,0.874,2.698c0,1.334-0.405,1.968-0.874,2.701  c-0.521,0.814-1.11,1.737-1.11,3.509c0,1.316,0.326,2.164,0.707,2.847c-0.958,0.869-1.982,1.633-3.058,2.297  C180.369,43.296,179.927,42.594,179.523,41.962z M185.149,40.56c-0.136,0.151-0.278,0.294-0.418,0.44  c-0.198-0.453-0.332-0.981-0.332-1.739c0-1.333,0.405-1.967,0.874-2.7c0.521-0.814,1.11-1.737,1.11-3.51  c0-1.771-0.59-2.693-1.11-3.507c-0.469-0.733-0.874-1.366-0.874-2.698h-0.053c0.45-0.55,0.763-1.196,0.859-1.91l-2.144-0.288  c-0.133,0.993-1.25,1.771-2.541,1.771c-1.293,0-2.413-0.777-2.546-1.771l-2.143,0.288c0.127,0.942,0.623,1.769,1.337,2.402  c0.099,1.453,0.62,2.282,1.09,3.015c0.469,0.733,0.874,1.366,0.874,2.698c0,1.334-0.405,1.968-0.874,2.701  c-0.521,0.814-1.11,1.737-1.11,3.509s0.59,2.694,1.11,3.509c0.437,0.683,0.813,1.287,0.864,2.442  c-2.81,1.436-5.922,2.195-9.167,2.195c-3.157,0-6.117-0.854-8.755-2.29c0.066-1.096,0.436-1.684,0.86-2.348  c0.521-0.814,1.11-1.737,1.11-3.509s-0.59-2.694-1.11-3.509c-0.469-0.733-0.874-1.367-0.874-2.701c0-1.332,0.405-1.965,0.874-2.698  c0.472-0.737,0.996-1.572,1.091-3.04c0.698-0.631,1.184-1.448,1.31-2.378l-2.143-0.287c-0.134,0.993-1.252,1.771-2.543,1.771  c-1.294,0-2.411-0.778-2.545-1.771l-2.141,0.287c0.096,0.714,0.407,1.36,0.857,1.911h-0.026c0,1.332-0.405,1.965-0.874,2.698  c-0.521,0.813-1.11,1.736-1.11,3.507c0,1.772,0.59,2.695,1.11,3.51c0.469,0.733,0.874,1.367,0.874,2.7  c0,0.649-0.102,1.126-0.254,1.536c-3.825-4.087-6.165-9.484-6.165-14.471c0-0.297,0.009-0.604,0.028-0.911l0.001-0.071  c-0.01-1.845,0.023-4.498,0.232-6.647c0.027-0.274,0.057-0.533,0.074-0.781c0.202-2.158,0.313-3.346,1.205-5.801  c0.203-0.563,1.031-1.07,1.736-1.07c0.176,0,0.33,0.032,0.455,0.095l5.777,3.313l0.466-0.146c2.956-0.892,6.481-1.344,10.472-1.344  c4.133,0,7.785,0.481,10.862,1.429l0.471,0.146l5.806-3.323c0.125-0.062,0.276-0.094,0.457-0.094c0.705,0,1.53,0.509,1.73,1.069  c0.896,2.452,1.006,3.644,1.205,5.802c0.023,0.247,0.049,0.505,0.074,0.773c0.198,2.051,0.238,4.563,0.238,6.31l0.004,0.092  c0.044,0.437,0.06,0.802,0.06,1.153C190.86,31.267,188.724,36.593,185.149,40.56z M170.132,30.229v-0.005  c-0.013,0-0.028,0.001-0.04,0.002c-0.013-0.001-0.027-0.002-0.041-0.002v0.005c-1.484,0.061-4.205,1.847-4.205,4.28  c0,2.336,1.879,4.234,4.205,4.278v0.008c0.014,0,0.027-0.004,0.041-0.004c0.013,0,0.026,0.004,0.04,0.004v-0.008  c2.327-0.044,4.206-1.942,4.206-4.278C174.338,32.076,171.616,30.29,170.132,30.229z M172.233,36.119  c-0.487,0.657-1.265,1.088-2.142,1.102c-1.479-0.022-2.673-1.228-2.673-2.711c0-1.438,1.989-2.664,2.673-2.708  c0.684,0.044,2.673,1.272,2.673,2.708C172.764,35.112,172.567,35.669,172.233,36.119z"/><text x="141.917" y="71.693" fill="#000000" font-size="5px" font-weight="bold" font-family="'Helvetica Neue', Helvetica, Arial-Unicode, Arial, Sans-serif">Created by Rikki Lorie</text><text x="141.917" y="76.693" fill="#000000" font-size="5px" font-weight="bold" font-family="'Helvetica Neue', Helvetica, Arial-Unicode, Arial, Sans-serif">from the Noun Project</text></svg>