<svg xmlns="http://www.w3.org/2000/svg" data-name="Слой 1" viewBox="0 0 100 125" x="0px" y="0px"><title>кошка</title><path d="M918.25-317.25a3.42367,3.42367,0,0,1-3.06647,1.106c-9.70477-.527-19.42493-1.42128-29.12256-1.241-8.9361.16611-17.80774-.61512-26.71729-0.743-227.49683-3.26573-455.00436-.79244-682.50558-1.267-227.73331-.47508-455.46817-0.1022-683.20237-0.13088-2.59165-.00033-4.812-0.27849-5.63489,3.22205-0.5956,2.53382-2.30381,4.79756-3.4492,7.21336-0.95281,2.00964-1.8877,3.70039.8288,5.62281,1.761,1.24626.77154,3.94977-.7037,5.40821a14.844,14.844,0,0,0-2.13794,2.41516c-0.84116,1.29938-1.04979,2.16946,1.06849,2.43578,4.7799,0.601,5.21716,1.92312,2.32457,5.95978a30.48465,30.48465,0,0,0-1.7715,3.19935c1.79951,1.45592,4.75774-1.17134,5.81667,2.109,0.51807,1.60488.98664,2.56977-.786,3.8983-2.34435,1.75707-5.06193,3.4884-5.64741,7.255,1.639-.438,3.4257-0.89684,4.24516.7296a4.55764,4.55764,0,0,1-.74238,5.18451c-1.97344,2.38585-3.86437,4.83979-5.80252,7.255-0.90285,1.12507-1.42314,1.99482.56467,2.64091,4.48579,1.458,4.85049,2.49581,2.4348,6.47875-0.636,1.04859-1.54921,1.92525-2.28143,2.92039-0.6102.82931-2.14666,1.304-1.74564,2.47191,0.50906,1.48262,1.8102-.28029,2.5497.20029a9.155,9.155,0,0,1,2.71218,2.45008c0.87053,1.32888-.67163,1.93327-1.32163,2.71716-1.52147,1.83484-4.61373,3.25018-1.06494,6.05176,1.10744,0.87424-.12474,2.00515-0.58065,2.58552-5.85052,7.44759-8.01926,16.33542-9.89326,25.28847-1.663,7.94506-.39294,15.82713.47427,23.82353,0.94027,8.6702,1.95339,17.37206,2.35027,26.14,0.48365,10.68422,1.73781,21.36993,1.1884,32.05489-0.42691,8.30221-.31213,16.61973-1.07382,24.94194-0.48209,5.26705-1.00845,10.65891-1.04556,16.01456-0.0515,7.44056-1.37249,14.74047-2.40642,22.06908-0.89005,6.30865-1.19243,12.70379-3.52368,18.79211-0.88792,2.31887-1.7067,3.31618-4.33523,3.29823-9.55529-.06541-9.45795.0379-10.03477-9.55195-0.25994-4.321-.85929-8.59252.001-12.92585,0.8486-4.27441-1.63307-8.15673-1.68922-12.399-0.04816-3.63728-1.1079-7.25654-1.21523-10.89864a191.73692,191.73692,0,0,0-2.57261-25.05219c-0.52714-3.24612.15076-7.0733-2.43585-10.07661-0.56392.6056-1.46281,1.12553-1.63358,1.82357-1.62529,6.64343-3.07539,13.32946-4.67519,19.97937-3.254,13.52621-4.6002,27.50775-9.72251,40.58949a27.43531,27.43531,0,0,1-8.2641,11.21441,6.78135,6.78135,0,0,1-7.04942.79015c-2.45368-.9697-2.59527-3.25854-2.75372-5.599A28.92363,28.92363,0,0,1-586.09235-60.479c2.08518-5.87411,1.4994-12.1881,3.37285-18.10783,0.5777-1.82549-.52865-4.11909-0.49093-6.19157,0.16113-8.85507.32014-17.71465,0.75948-26.55872,0.31181-6.27653-1.114-12.1878-2.90559-18.60654-3.99467,4.52312-8.03263,8.49053-11.15854,13.28339-2.4803,3.803-6.31089,6.43133-8.93193,10.17252-2.37987,3.39693-2.69382,6.97437-2.41443,10.9108a185.99806,185.99806,0,0,0,2.98709,20.03906c0.78065,4.29719,2.69392,8.40065,4.21415,12.549,3.22575,8.80215,4.94019,17.93282,3.75641,27.19217a27.09144,27.09144,0,0,1-9.83633,17.75958c-1.72222,1.41529-5.104.65037-5.62251-1.38023-1.05354-4.12534-2.91083-8.09807-1.429-12.68639,0.98916-3.063-1.2103-5.86164-2.4958-8.56094-2.75114-5.77693-3.51844-12.18208-5.97491-18.03948-2.46709-5.88268-4.89768-11.78066-7.66908-18.4541-0.73553,8.97137-3.36478,16.79336-5.23587,24.7709-1.68576,7.18751-4.132,14.24123-6.47594,21.29279-2.83847,8.53944-9.67332,11.8353-16.70884,15.29-2.25344,1.10648-4.53438,1.34065-6.43965-.83061a5.23379,5.23379,0,0,1-.46437-6.27944c3.70025-6.15742,5.03986-12.96689,6.59-19.818,2.159-9.5419,1.779-18.947.29425-28.53005-1.289-8.31983-2.63031-16.62312-4.41927-24.84036-1.36292-6.26035-3.0406-12.46623-6.06749-18.19286a1.88929,1.88929,0,0,0-1.76847-1.176c-1.85286.06757-3.28571-1.04633-4.74409-1.873-6.03922-3.42343-12.2903-2.27392-18.5651-1.10541-0.96188.17915-2.25877,0.95423-2.80885,0.58113-5.84894-3.96721-8.00077,2.05627-10.74042,4.51408-2.57167,2.30708-4.40871.97909-6.19438,0.297-1.71138-.65371-0.77764-2.36382.41238-3.26248,2.01847-1.52431,4.14243-2.909,6.50676-4.5499-3.86069-1.76866-6.20936.82052-8.24831,2.64993-2.35593,2.11382-5.22533,3.26193-7.6968,5.11194-1.98975,1.4894-3.849-.81248-4.89725-2.02341-1.3017-1.5038,1.05345-1.65363,1.90166-2.27081,3.67593-2.67464,8.31052-3.69788,11.75327-6.78452,0.51861-.465,1.01111-0.959,1.67495-1.5913-3.89208-1.21053-6.50989,1.28439-9.29114,2.497a6.73835,6.73835,0,0,1-5.2.3633c-1.38845-.41734-2.48022-1.1594-2.488-2.3497-0.0079-1.212,1.10032-2.07648,2.52618-2.226,4.72863-.49583,8.73909-3.11905,13.16361-4.52519a4.75039,4.75039,0,0,0,1.21721-.97364c-4.3935-.361-5.50889-2.28825-4.00447-6.56028a4.17524,4.17524,0,0,0,.30906-2.16877c-1.04573-4.46873,1.64082-6.1574,5.25664-6.68967,3.39437-.49966,3.67656-1.77966,3.28559-5.10637-0.63908-5.43783-.28718-11.07794-0.54252-16.52957-0.46656-9.96128,2.47834-19.027,4.77573-28.34264,0.87955-3.56646,3.42492-4.50568,6.13232-2.07527,5.91357,5.30857,11.43027,10.99445,15.84421,18.15276a120.4643,120.4643,0,0,0,2.75608-15.91745c0.33119-2.68484,1.71138-5.07167,1.68894-7.9055-0.01639-2.06875,2.13916-1.80478,3.53043-1.45564a10.0109,10.0109,0,0,1,2.72964,1.74273,32.0001,32.0001,0,0,0,1.91192-11.55168,3.29329,3.29329,0,0,1,4.83919-2.81462c3.22319,1.8125,3.562.18343,4.18523-2.38775a50.32385,50.32385,0,0,1,2.69591-7.89815,4.31459,4.31459,0,0,1,4.4631-3.02008c3.62693,0.071,4.88039-2.25668,6.06627-4.99159,1.188-2.73988,2.43194-5.29339,6.22585-5.34468,2.0517-.02773,3.93521-0.62107,4.7185-3.59536,0.61085-2.31956,1.97074-6.07127,6.35454-3.93484,1.44317,0.70333,2.61756-.77467,3.02586-2.09343,0.70464-2.276,1.81224-3.09973,4.28172-2.49812a4.91375,4.91375,0,0,0,4.67816-1.22594c1.89022-2.30956,3.88474-2.0299,5.87814-.79982,2.14421,1.32314,3.51881.53146,4.73131-1.12267,1.82813-2.494,3.77319-1.99931,6.13973-.73544,2.41306,1.28872-.87778,3.29019,1.27066,4.35189,1.19353-.85356,3.00659-1.50672,3.98488-3.4379,0.68092-1.3441,2.23366-1.50108,3.63235-1.22614,1.39506,0.27421,1.42408,1.44753,1.56667,2.61623,0.098,0.80306.52682,2.14084,0.96613,2.20829,0.93526,0.14359,1.69125-.701,2.37426-1.50687,2.92-3.44505,4.72169-3.58057,7.71279-.48413,1.12173,1.16125,2.07907.83651,3.28127,0.385,4.79045-1.79914,6.12421-.84318,5.72594,4.092a16.37621,16.37621,0,0,0,3.189-1.66865c1.45958-.73233,3.82487-1.39275,4.3792.6158,0.70313,2.54769,2.164,3.10466,4.307,3.46238a2.319,2.319,0,0,1,2.09415,2.8809c-0.16859.8467-.45744,1.4562,0.68614,1.52253,0.82207,0.04768,1.50774.17011,2.05925-.98159a5.16517,5.16517,0,0,0-.268-4.55133c-2.74109-6.40095-2.42873-13.434-4.31174-20.00068-0.10007-.34906.06127-0.7801-0.05962-1.115-0.78232-2.16756-1.66658-4.83261.96918-5.81689,2.33118-.87055,3.081,2.07656,4.40591,3.54276,0.87527,0.96865,1.1052,2.509,2.53535,3.03915,1.78345-5.27763-.34589-10.64527.74194-15.93564,0.31268-1.52058.63668-2.57433,1.86761-3.01705a2.18253,2.18253,0,0,1,3.03458,1.36881c0.25667,0.71881.6755,1.48565,1.54825,1.27,0.9565-.23634.551-1.21617,0.69747-1.89443,1.11182-5.14847.17844-10.311,0.16873-15.46851-0.004-2.10124,1.80293-2.40454,3.38576-2.311a8.75434,8.75434,0,0,1,2.71722,1.21861c0.58919-2.447,1.22967-4.6574,1.63614-6.91005,0.49608-2.74934.91228-5.42636,4.70068-5.47061H-810.92743c3.72741,1.22017-3.27684,3.43549.1045,4.94461-1.325,1.368-2.31355,3.075-4.05416,4.02428-1.31124,2.34766-1.04714,4.28845,1.45926,5.65013l0.25151,2.81061c-1.20125.28865-2.56429-1.71182-3.74643,0.57009a5.70838,5.70838,0,0,1,4.82608,4.31616c0.11137,0.36366.01213,1.0774,0.82868,0.85993,0.53346-.14208,1.27915-0.66059,1.38517.41859,0.08826,0.89848-.97485.59724-1.30017,1.05506-0.39072.54987-1.699-.37315-1.52357,1.00962a0.8402,0.8402,0,0,0,.93422.89286c2.536-.26837,2.00215,1.551,2.00449,2.945,0.0161,9.55833-.25448,19.10395-0.63154,28.65976-0.487,12.34092.37907,24.74708-.36747,37.06272-0.81573,13.45707-.67934,26.93435-1.46323,40.35585-0.92038,15.7585-.75063,31.52082-1.45875,47.25453-0.52143,11.58571.11437,23.178-.69508,34.71154-0.78346,11.16319-.3229,22.30918-0.6389,33.45694-0.68235,24.07121-.81644,48.14632-0.7689,72.22529,0.01151,5.8304-.7715,11.683-0.47,17.48808,0.70707,13.61167-.49011,27.18562-0.38005,40.78757,0.10692,13.21458-.4641,26.44583-0.72438,39.66962-0.19271,9.79083-.08164,19.6257-0.80554,29.36742-0.89971,12.10762.18449,24.21451-.6986,36.26019-1.00266,13.67674-.01757,27.35527-0.70462,41-1.50746,29.93825-.00148,59.89023-0.7745,89.82051-0.37233,14.41621-.02776,28.86479-0.85984,43.23349-0.85243,14.72021.294,29.43393-.73772,44.09962-0.98213,13.96042-.23594,27.91164-0.57613,41.86166-0.02937,1.20424.38246,2.53377-.73694,3.52322V-300c3.40518-.43556,5.21127-3.31555,4.89806-8.03435-2.15264,2.037-3.81646,1.75967-4.89806-.96565,0-3.24931.08212-6.50171-.04036-9.7464-0.0491-1.30081.22409-1.76468,1.54111-1.52252a10.50349,10.50349,0,0,0,1.87112.01892q867.37728,0,1734.75459-.02634C917.07977-320.27644,919.10492-320.47582,918.25-317.25ZM-623.30366-121.97353c0.64975,4.13029-.92081,6.4975-3.8792,5.42267-4.33669-1.5756-8.75743-.58887-13.1175-1.09506-7.47465-.86776-13.96486,4.41179-21.71957,3.70061,2.55231,7.11376,4.6264,13.90654,5.42338,21.1095,1.23823,11.19115,4.55083,22.04542,4.587,33.49908a118.91117,118.91117,0,0,1-2.37535,23.39163c-0.83656,4.27876-3.22485,8.10313-3.65179,13.27707,4.04856-2.38236,8.29145-3.44934,10.14492-7.68967,2.44884-5.60241,4.98632-11.30882,5.97519-17.28788,1.561-9.43865,5.17426-18.38058,6.31685-27.85789,0.82389-6.834,2.49287-13.88489-1.67347-20.29994-1.60529-2.47174-2.36028-5.44908-4.62108-7.52744a2.20346,2.20346,0,0,1-.21254-3.06372c0.71809-.9136,1.80626-1.81554,3.15207-1.3136,1.27446,0.47525,2.77408,1.12392,3.09344,2.49225,1.27669,5.46984,7.396,8.93829,6.28506,15.41826-0.1322.77113,0.90326,1.69968,1.272,2.6063,2.80692,6.90072,5.82866,13.709,8.57881,20.63953,2.79016,7.0313,4.45825,14.47719,7.96626,21.22327a21.183,21.183,0,0,1,2.48016,5.50335c0.92635,4.23956,1.54612,8.55592,2.284,12.87893a3.02723,3.02723,0,0,0,1.04572-.32677c0.37711-.46809.66671-1.00541,1.0112-1.50128,2.9754-4.28275,2.73276-9.26044,2.93841-14.10059,0.27056-6.36816-1.90219-12.24891-3.63075-18.27763-2.82573-9.85524-6.20588-19.532-7.25626-29.93115-0.79726-7.89333.50583-14.60912,5.26325-20.78828,4.52067-5.87164,10.542-10.54,14.12585-17.12519a24.87849,24.87849,0,0,1,6.38329-7.64912c4.331-3.45266,8.69522-7.0122,13.52612-9.64476,4.29117-2.33845,9.021-3.3674,13.92957-.173,4.85854,3.16184,5.40656,9.7042,10.55322,12.44451a1.24249,1.24249,0,0,1-.06741.6789c-0.84265,3.02808.34644,5.766,0.91924,8.6686a63.80719,63.80719,0,0,1,1.46478,10.08987c0.19476,6.60679,2.49069,12.86639,2.34547,19.48812-0.06274,2.85951,1.9503,5.9149,1.44308,8.58126-0.895,4.70485.524,8.99911,0.86243,13.47384,0.37113,4.90677,2.461,9.64366,1.59608,14.64848-0.37994,2.19848-.7039,4.40657.28439,6.38583,0.44744,0.896-.11378,2.98661,1.34958,2.60124,1.63314-.43009,3.87794-0.17056,4.49725-3.0043,1.87218-8.5667,2.237-17.33521,3.77749-25.91682,1.1066-6.16463-.51235-12.40924,1.29453-18.51389a19.68091,19.68091,0,0,0,.4192-7.24562,85.53854,85.53854,0,0,1,.08656-14.26829c0.54442-7.14986.08771-14.26813,0.03989-21.32423-0.04866-7.1876-1.12571-14.51-1.73467-21.74361-0.93771-11.13843-2.42189-22.1845-4.10479-33.19892-0.73089-4.78368.19391-9.68723-1.39112-14.32706-1.04386-3.05576-1.03578-6.44163-3.664-9.01341-1.64548-1.61014-3.37271.1526-5.00542-1.01-2.12549-1.51354-1.3282-3.76909-2.13959-5.3554-0.7454-1.45732-4.00594-.894-4.97026-3.42584-0.74222-1.94863,1.58189-2.851,1.40781-4.82054-2.54771.66832-4.39847,2.77915-7.25967,0.95982-3.52627-2.2422.77923-4.50755-.55534-6.54-2.191,1.68234-4.42131,3.91912-6.29011-.32643a0.97112,0.97112,0,0,0-1.11124-.74017c-4.00774,1.192-5.26886-1.552-6.166-4.724-1.71677,1.18454-3.08736,2.64638-4.88615,1.09154-1.33168-1.15109-1.05988-3.13359-1.99931-4.85468a10.76926,10.76926,0,0,1-3.11572,2.8225c-2.04879,1.08832-3.97781,1.83765-4.87791-.72566-1.02056-2.90642-1.70247-1.7875-3.04259-.373-3.12566,3.29914-3.97662,3.38035-5.99426-.31938-1.55582-2.85287-2.4912-1.88465-3.86854-.15494-2.29669,2.88429-4.44244,2.74489-6.19922-.40673-0.44346-.79558-0.76847-1.65717-1.29469-2.81a37.31587,37.31587,0,0,0-2.373,3.9391c-2.098,4.729-2.22942,4.78837-6.5541,1.5822-1.06485,1.55772-1.30106,4.03544-3.78284,4.089-2.99794.06473-3.25346-2.81748-4.40666-4.80828-1.36711,2.01008-1.51756,4.26165-2.22,6.32415-0.33291.97754-.69514,2.12342-2.13107,2.29638-1.47217.17731-2.27925-.6598-3.16976-1.57812-0.57219-.59007.18629-1.89025-1.22952-2.04036a23.68351,23.68351,0,0,0-3.01669,8.54734,3.55094,3.55094,0,0,1-3.59586,3.08377c-1.498.0374-2.34843-1.54622-2.24306-3.29,0.03918-.6484.284-1.60356-0.993-1.61127a58.71615,58.71615,0,0,0-4.92929,12.88444c-0.68319,2.75652-2.13593,3.40456-4.53117,2.376-2.6005-1.11667-3.81323-.00976-4.52673,2.41271a12.4129,12.4129,0,0,0-.78582,3.5708c-0.00287,2.91771-.85254,5.199-4.46973,4.91125a1.17192,1.17192,0,0,0-1.5018,1.18561c-0.20491,3.11235-3.38285,4.91217-3.56415,8.07774-0.16116,2.81412-2.12929,3.26973-4.22788,2.506-2.52588-.91924-2.43882.44239-2.348,2.11654,0.12538,2.31136.2384,4.62339,0.36171,7.03231-1.3237-.51065-0.09863-1.935-1.33044-2.50743-0.14283,1.60388-.95691,2.98034-0.58557,4.57126a64.83515,64.83515,0,0,1,28.13073.867c1.0098,0.26269,2.41254,1.17848,3.44784.08585,2.92356-3.08545,6.97553-4.57682,10.08314-7.52824,2.74387-2.606,5.77291-5.19841,9.83-6.20867a3.9508,3.9508,0,0,1,4.25258,1.17272c1.36995,1.28152.838,2.5222,0.3718,4.048a50.67753,50.67753,0,0,0-2.21022,15.58293c0.10334,5.83856-.09212,11.53069-1.70991,17.09657-1.60554,5.52375-1.70792,5.60046,3.64453,8.007,0.89985,0.40458,1.86756.657,2.77254,1.05161,4.0164,1.75152,4.13058,2.94574.413,5.69437,2.67609,2.10854,2.834,4.3592.1804,6.44289,2.01,1.611,4.66267,1.53984,6.478,2.8471,1.43253,1.03157,4.96694-.56548,4.2244,2.1764-0.67264,2.48367-3.72077.65907-5.5862,0.507-2.0587-.16778-4.0348-1.32281-5.92593.94493,2.27257,1.41309,4.38277,2.65,6.39809,4.02579,0.57951,0.3956,2.03824.323,1.43884,1.66374-0.38917.87044-1.29124,0.97524-2.22318,1.05876a4.62962,4.62962,0,0,1-3.12241-.96343c-1.93437-1.37938-3.71244-1.28542-5.73251.03916,0.84164,2.21123,3.34964,2.546,4.55738,4.24635,0.68058,0.95819,2.29566,1.78558,1.12983,3.03907-0.92677.99646-2.25439,0.16445-3.37788-.47937C-619.61658-119.65622-620.86039-121.78214-623.30366-121.97353Zm-2.109-26.18915c-4.4916-3.80564-4.39121-3.78284-2.94585-10.14643,0.40068-1.764.71965-3.59647,0.96-5.42845,1.01022-7.69941-.16035-15.48524,1.1318-23.1449,0.20815-1.23405-.506-2.01194-1.25439-1.37872-4.06817,3.4423-9.58084,5.26878-12.01344,10.55977-0.75,1.63139-1.65684,2.576-3.67569,1.53268a26.88317,26.88317,0,0,0-6.99717-2.16c-9.21325-1.85938-18.55849-2.53307-27.65427.69173-3.36446,1.19282-5.4641.5748-7.47548-2.435-3.313-4.95764-6.70638-9.93769-11.66488-13.492-1.03672-.74315-2.81709-2.47953-3.14954.32363-0.75146,6.33616-4.2433,11.95811-3.33757,18.87016,1.10979,8.46953-.72375,17.25793,2.40713,25.61335a2.6116,2.6116,0,0,1-1.13958,3.29586c-3.32237,1.76559-.797,4.15007-0.37716,5.9057,0.49276,2.06079,2.38776,1.18747,3.937.4289,1.15034-.56327,2.53238-0.9286,3.65195.37693,1.122,1.30841.52641,2.39264-.45726,3.40352,0.96967,0.66241,1.40627-.39386,2.1537-0.416a5.47321,5.47321,0,0,1,4.85583,2.7781c0.8605,1.426-.75929,2.60088-1.95453,3.54929-1.60588,1.27425-3.14276,2.63548-4.70927,3.95938l0.7746,0.90218c3.04249-.11964,6.06079.4712,9.14608-0.52334a6.37167,6.37167,0,0,1,4.67772.40485c9.38458,4.446,19.13333,6.91022,29.43587,3.693a52.6236,52.6236,0,0,1,17.096-2.01537c0.97166,0.02135,2.653-.13385,1.83764-1.34521-1.54874-2.30079-.04516-5.64162-2.88668-7.39689a1.95116,1.95116,0,0,1-.31913-2.9736c0.83663-.97521,1.8862-0.06639,2.65875.44544,1.78025,1.17941,3.4033,2.63568,5.80956,2.88771-1.44646-2.44924-2.90023-4.54131-5.34658-5.785a1.89226,1.89226,0,0,1-1.1224-2.48795c0.56149-1.09587,1.8054-.59549,2.70786-0.50956,1.38027,0.13145,2.14073,1.93036,4.03867,1.62332a8.41075,8.41075,0,0,0-3.50139-3.34709c-0.79669-.42-2.02946-1.16708-1.6704-2.20721,0.392-1.13552,1.70526-.77034,2.536-0.35961,1.00873,0.49875,1.64532.67466,1.75108-.71626C-627.39037-146.603-625.92344-147.04-625.41269-148.16269ZM-524.9334-316.80811c-2.04833,1.815-.86428,4.3355-2.05511,6.076-1.21042,1.7691-.13255,4.64784-3.69994,5.49127-1.82607.43173-1.75117,4.03969-1.542,6.39,0.26969,3.031-1.24514,3.76666-3.86318,3.21249-0.65463-.13857-1.23951-0.92948-2.14128.01713a41.04676,41.04676,0,0,1-1.47144,13.35142c-0.524,1.75915-1.766,3.22468-3.2471,2.97133-3.62746-.62049-3.00652,1.48039-2.44427,3.36469a15.29674,15.29674,0,0,1,.09016,6.99281c-0.29079,1.76553-.20457,3.97924-2.771,4.65817-2.40008.63493-2.23061-2.18907-3.81521-2.62525a38.83285,38.83285,0,0,0,2.75084,14.72912c0.92832,2.46086,1.60416,5.0256.55428,7.9159-0.77987,2.14693-.81127,4.80379,3.15065,4.36772,1.71487-.18875,3.00124.98455,2.6911,3.08945-0.32417,2.20032-.14017,4.08949,2.72653,4.30389a1.13631,1.13631,0,0,1,.86387.5297c1.219,5.86927,5.80064,10.10239,7.59231,15.67795,0.27441,0.854-.13618,2.06331,1.34772,2.14094a19.47041,19.47041,0,0,1,3.16058-8.83305c0.67019-1.06992.44389-1.47451-.51693-1.93089-3.36255-1.59713-3.59276-3.51961-1.11076-6.218,1.13688-1.236,3.93521-2.46168,1.57874-4.73882-1.96628-1.90008-1.23656-3.29283-.1328-5.20467,0.77623-1.34449,2.05158-2.17417,2.76283-3.45376,0.64153-1.15413,2.26334-2.24784-.67651-3.32416-3.27608-1.19942-3.24536-3.32787-.98607-6.17848a60.09156,60.09156,0,0,0,4.32971-6.3898c0.72434-1.20481,1.79057-2.50911-1.09023-2.97257-2.34521-.37729-3.69184-2.01283-1.394-4.51269a15.25827,15.25827,0,0,0,3.67809-6.32182c-5.45306-.71192-5.4725-1.12028-0.546-10.28731-5.90607-1.29625-6.27324-2.163-2.88993-7.42286,1.15853-1.80111,2.88206-3.30321.29821-5.41935-0.70995-.58142-0.37992-2.1096.2896-3.15,1.06865-1.66067,1.35839-2.97647-1.07916-3.88992-1.13148-.424-1.56171-1.62435-1.30362-3.29931C-525.40018-310.58589-524.29439-313.45622-524.9334-316.80811Zm-41.578,174.29821c-2.83537-.46757-4.89752,1.85742-7.37936,3.07771-5.18095,2.54739-6.503,6.30513-5.27092,11.99678a101.25871,101.25871,0,0,1,1.62909,27.681c-0.2431,4.02026-1.46255,8.05939-.454,12.10382,1.76605,7.08215-.08668,13.86324-1.41433,20.72717-0.95329,4.92849-1.61414,9.91548-2.30864,14.88991-0.10494.75172-.5097,1.91988,0.505,2.32212a2.154,2.154,0,0,0,2.51539-1.16226c1.38579-2.185,3.503-3.78506,4.51888-6.29741,2.52541-6.2457,3.29775-12.95018,4.92748-19.40131,2.08431-8.25027,2.53251-16.89079,4.99-25.15981,2.83868-9.55181,4.37981-19.48336,8.35773-28.70389a1.51652,1.51652,0,0,0-.06763-1.66053c-1.54919-2.49057-2.961-5.06865-4.56111-7.5248A6.42316,6.42316,0,0,0-566.51141-142.5099Zm47.475-177.014c-3.16509.07491-1.51847,3.51915-2.65006,5.21182a0.99969,0.99969,0,0,0,.79042,1.3946c0.85934,0.15061,4.24622-3.95848,4.36519-5.17842C-516.37194-319.72551-517.52557-319.448-519.03642-319.5239Zm-300.92979-.44116c0.1531,1.77156,1.83139,2.2923.91569,3.79076-0.64917,1.06231.29666,1.76016,1.42894,1.90788a4.61459,4.61459,0,0,0,3.95578-1.30895c0.46146-.46314-0.59773-1.44449-0.81641-1.318C-817.49355-315.15208-817.85172-318.54669-819.96621-319.96507Z"/><path d="M918.25-329.25a3.42367,3.42367,0,0,1-3.06647,1.106c-9.70477-.527-19.42493-1.42128-29.12256-1.241-8.9361.16611-17.80774-.61512-26.71729-0.743-227.49683-3.26573-455.00436-.79244-682.50558-1.267-227.73331-.47508-455.46817-0.1022-683.20237-0.13088-2.59165-.00033-4.812-0.27849-5.63489,3.22205-0.5956,2.53382-2.30381,4.79756-3.4492,7.21336-0.95281,2.00964-1.8877,3.70039.8288,5.62281,1.761,1.24626.77154,3.94977-.7037,5.40821a14.844,14.844,0,0,0-2.13794,2.41516c-0.84116,1.29938-1.04979,2.16946,1.06849,2.43578,4.7799,0.601,5.21716,1.92312,2.32457,5.95978a30.48465,30.48465,0,0,0-1.7715,3.19935c1.79951,1.45592,4.75774-1.17134,5.81667,2.109,0.51807,1.60488.98664,2.56977-.786,3.8983-2.34435,1.75707-5.06193,3.4884-5.64741,7.255,1.639-.438,3.4257-0.89684,4.24516.7296a4.55764,4.55764,0,0,1-.74238,5.18451c-1.97344,2.38585-3.86437,4.83979-5.80252,7.255-0.90285,1.12507-1.42314,1.99482.56467,2.64091,4.48579,1.458,4.85049,2.49581,2.4348,6.47875-0.636,1.04859-1.54921,1.92525-2.28143,2.92039-0.6102.82931-2.14666,1.304-1.74564,2.47191,0.50906,1.48262,1.8102-.28029,2.5497.20029a9.155,9.155,0,0,1,2.71218,2.45008c0.87053,1.32888-.67163,1.93327-1.32163,2.71716-1.52147,1.83484-4.61373,3.25018-1.06494,6.05176,1.10744,0.87424-.12474,2.00515-0.58065,2.58552-5.85052,7.44759-8.01926,16.33542-9.89326,25.28847-1.663,7.94506-.39294,15.82713.47427,23.82353,0.94027,8.6702,1.95339,17.37206,2.35027,26.14,0.48365,10.68422,1.73781,21.36993,1.1884,32.05489-0.42691,8.30221-.31213,16.61973-1.07382,24.94194-0.48209,5.26705-1.00845,10.65891-1.04556,16.01456-0.0515,7.44056-1.37249,14.74047-2.40642,22.06908-0.89005,6.30865-1.19243,12.70379-3.52368,18.79211-0.88792,2.31887-1.7067,3.31618-4.33523,3.29823-9.55529-.06541-9.45795.0379-10.03477-9.55195-0.25994-4.321-.85929-8.59252.001-12.92585,0.8486-4.27441-1.63307-8.15673-1.68922-12.399-0.04816-3.63728-1.1079-7.25654-1.21523-10.89864a191.73692,191.73692,0,0,0-2.57261-25.05219c-0.52714-3.24612.15076-7.0733-2.43585-10.07661-0.56392.6056-1.46281,1.12553-1.63358,1.82357-1.62529,6.64343-3.07539,13.32946-4.67519,19.97937-3.254,13.52621-4.6002,27.50775-9.72251,40.58949a27.43531,27.43531,0,0,1-8.2641,11.21441,6.78135,6.78135,0,0,1-7.04942.79015c-2.45368-.9697-2.59527-3.25854-2.75372-5.599A28.92363,28.92363,0,0,1-586.09235-72.479c2.08518-5.87411,1.4994-12.1881,3.37285-18.10783,0.5777-1.82549-.52865-4.11909-0.49093-6.19157,0.16113-8.85507.32014-17.71465,0.75948-26.55872,0.31181-6.27654-1.114-12.1878-2.90559-18.60654-3.99467,4.52312-8.03263,8.49053-11.15854,13.28339-2.4803,3.803-6.31089,6.43133-8.93193,10.17252-2.37987,3.39693-2.69382,6.97437-2.41443,10.9108a185.99805,185.99805,0,0,0,2.98709,20.03906c0.78065,4.29719,2.69392,8.40065,4.21415,12.549,3.22575,8.80215,4.94019,17.93282,3.75641,27.19217a27.09144,27.09144,0,0,1-9.83633,17.75958c-1.72222,1.41529-5.104.65037-5.62251-1.38023-1.05354-4.12534-2.91083-8.09807-1.429-12.68639,0.98916-3.063-1.2103-5.86164-2.4958-8.56094-2.75114-5.77693-3.51844-12.18208-5.97491-18.03948-2.46709-5.88268-4.89768-11.78066-7.66908-18.4541-0.73553,8.97137-3.36478,16.79336-5.23587,24.7709-1.68576,7.18751-4.132,14.24123-6.47594,21.29279-2.83847,8.53944-9.67332,11.8353-16.70884,15.29-2.25344,1.10648-4.53438,1.34065-6.43965-.83061a5.23379,5.23379,0,0,1-.46437-6.27944c3.70025-6.15742,5.03986-12.96689,6.59-19.818,2.159-9.5419,1.779-18.947.29425-28.53005-1.289-8.31983-2.63031-16.62312-4.41927-24.84036-1.36292-6.26035-3.0406-12.46623-6.06749-18.19286a1.88929,1.88929,0,0,0-1.76847-1.176c-1.85286.06757-3.28571-1.04633-4.74409-1.873-6.03922-3.42343-12.2903-2.27392-18.5651-1.10541-0.96188.17915-2.25877,0.95423-2.80885,0.58113-5.84894-3.96721-8.00077,2.05627-10.74042,4.51408-2.57167,2.30708-4.40871.97909-6.19438,0.297-1.71138-.65371-0.77764-2.36382.41238-3.26248,2.01847-1.52431,4.14243-2.909,6.50676-4.5499-3.86069-1.76866-6.20936.82052-8.24831,2.64993-2.35593,2.11382-5.22533,3.26193-7.6968,5.11194-1.98975,1.4894-3.849-.81248-4.89725-2.02341-1.3017-1.5038,1.05345-1.65363,1.90166-2.27081,3.67593-2.67464,8.31052-3.69788,11.75327-6.78452,0.51861-.465,1.01111-0.959,1.67495-1.5913-3.89208-1.21053-6.50989,1.28439-9.29114,2.497a6.73835,6.73835,0,0,1-5.2.3633c-1.38845-.41734-2.48022-1.1594-2.488-2.3497-0.0079-1.212,1.10032-2.07648,2.52618-2.226,4.72863-.49583,8.73909-3.11905,13.16361-4.52519a4.75039,4.75039,0,0,0,1.21721-.97364c-4.3935-.361-5.50889-2.28825-4.00447-6.56028a4.17524,4.17524,0,0,0,.30906-2.16877c-1.04573-4.46873,1.64082-6.1574,5.25664-6.68967,3.39437-.49966,3.67656-1.77966,3.28559-5.10637-0.63908-5.43783-.28718-11.07794-0.54252-16.52957-0.46656-9.96128,2.47834-19.027,4.77573-28.34264,0.87955-3.56646,3.42492-4.50568,6.13232-2.07527,5.91357,5.30857,11.43027,10.99445,15.84421,18.15276a120.4643,120.4643,0,0,0,2.75608-15.91745c0.33119-2.68484,1.71138-5.07167,1.68894-7.9055-0.01639-2.06875,2.13916-1.80478,3.53043-1.45564a10.0109,10.0109,0,0,1,2.72964,1.74273,32.0001,32.0001,0,0,0,1.91192-11.55168,3.29329,3.29329,0,0,1,4.83919-2.81462c3.22319,1.8125,3.562.18343,4.18523-2.38775a50.32385,50.32385,0,0,1,2.69591-7.89815,4.31459,4.31459,0,0,1,4.4631-3.02008c3.62693,0.071,4.88039-2.25668,6.06627-4.99159,1.188-2.73988,2.43194-5.29339,6.22585-5.34468,2.0517-.02773,3.93521-0.62107,4.7185-3.59536,0.61085-2.31956,1.97074-6.07127,6.35454-3.93484,1.44317,0.70333,2.61756-.77467,3.02586-2.09343,0.70464-2.276,1.81224-3.09973,4.28172-2.49812a4.91375,4.91375,0,0,0,4.67816-1.22594c1.89022-2.30956,3.88474-2.0299,5.87814-.79982,2.14421,1.32314,3.51881.53146,4.73131-1.12267,1.82813-2.494,3.77319-1.99931,6.13973-.73544,2.41306,1.28872-.87778,3.29019,1.27066,4.35189,1.19353-.85356,3.00659-1.50672,3.98488-3.4379,0.68092-1.3441,2.23366-1.50108,3.63235-1.22614,1.39506,0.27421,1.42408,1.44753,1.56667,2.61623,0.098,0.80306.52682,2.14084,0.96613,2.20829,0.93526,0.14359,1.69125-.701,2.37426-1.50687,2.92-3.44505,4.72169-3.58057,7.71279-.48413,1.12173,1.16125,2.07907.83651,3.28127,0.385,4.79045-1.79914,6.12421-.84318,5.72594,4.092a16.37621,16.37621,0,0,0,3.189-1.66865c1.45958-.73233,3.82487-1.39275,4.3792.6158,0.70313,2.54769,2.164,3.10466,4.307,3.46238a2.319,2.319,0,0,1,2.09415,2.8809c-0.16859.8467-.45744,1.4562,0.68614,1.52253,0.82207,0.04768,1.50774.17011,2.05925-.98159a5.16517,5.16517,0,0,0-.268-4.55133c-2.74109-6.40095-2.42873-13.434-4.31174-20.00068-0.10007-.34906.06127-0.7801-0.05962-1.115-0.78232-2.16756-1.66658-4.83261.96918-5.81689,2.33118-.87055,3.081,2.07656,4.40591,3.54276,0.87527,0.96865,1.1052,2.509,2.53535,3.03915,1.78345-5.27763-.34589-10.64527.74194-15.93564,0.31268-1.52058.63668-2.57433,1.86761-3.01705a2.18253,2.18253,0,0,1,3.03458,1.36881c0.25667,0.71881.6755,1.48565,1.54825,1.27,0.9565-.23634.551-1.21617,0.69747-1.89443,1.11182-5.14847.17844-10.311,0.16873-15.46851-0.004-2.10124,1.80293-2.40454,3.38576-2.311a8.75434,8.75434,0,0,1,2.71722,1.21861c0.58919-2.447,1.22967-4.6574,1.63614-6.91005,0.49608-2.74934.91228-5.42636,4.70068-5.47061H-810.92743c3.72741,1.22017-3.27684,3.43549.1045,4.94461-1.325,1.368-2.31355,3.075-4.05416,4.02428-1.31124,2.34766-1.04714,4.28845,1.45926,5.65013l0.25151,2.81061c-1.20125.28865-2.56429-1.71182-3.74643,0.57009a5.70838,5.70838,0,0,1,4.82608,4.31616c0.11137,0.36366.01213,1.0774,0.82868,0.85993,0.53346-.14208,1.27915-0.66059,1.38517.41859,0.08826,0.89848-.97485.59724-1.30017,1.05506-0.39072.54987-1.699-.37315-1.52357,1.00962a0.8402,0.8402,0,0,0,.93422.89286c2.536-.26837,2.00215,1.551,2.00449,2.945,0.0161,9.55833-.25448,19.10395-0.63154,28.65976-0.487,12.34092.37907,24.74708-.36747,37.06272-0.81573,13.45707-.67934,26.93435-1.46323,40.35585-0.92038,15.7585-.75063,31.52082-1.45875,47.25453-0.52143,11.58571.11437,23.178-.69508,34.71154-0.78346,11.16319-.3229,22.30918-0.6389,33.45694-0.68235,24.07121-.81644,48.14632-0.7689,72.22529,0.01151,5.8304-.7715,11.683-0.47,17.48808,0.70707,13.61167-.49011,27.18562-0.38005,40.78757,0.10692,13.21458-.4641,26.44583-0.72438,39.66962-0.19271,9.79083-.08164,19.6257-0.80554,29.36742-0.89971,12.10762.18449,24.21451-.6986,36.26019-1.00266,13.67674-.01757,27.35527-0.70462,41-1.50746,29.93825-.00148,59.89023-0.7745,89.82051-0.37233,14.41621-.02776,28.86479-0.85984,43.23349-0.85243,14.72021.294,29.43393-.73772,44.09962-0.98213,13.96042-.23594,27.91164-0.57613,41.86166-0.02937,1.20424.38246,2.53377-.73694,3.52322V-312c3.40518-.43556,5.21127-3.31555,4.89806-8.03435-2.15264,2.037-3.81646,1.75967-4.89806-.96565,0-3.24931.08212-6.50171-.04036-9.7464-0.0491-1.30081.22409-1.76468,1.54111-1.52252a10.50349,10.50349,0,0,0,1.87112.01892q867.37728,0,1734.75459-.02634C917.07977-332.27644,919.10492-332.47582,918.25-329.25ZM-623.30366-133.97353c0.64975,4.13029-.92081,6.4975-3.8792,5.42267-4.33669-1.5756-8.75743-.58887-13.1175-1.09506-7.47465-.86776-13.96486,4.41179-21.71957,3.70061,2.55231,7.11376,4.6264,13.90654,5.42338,21.1095,1.23823,11.19115,4.55083,22.04542,4.587,33.49908a118.91117,118.91117,0,0,1-2.37535,23.39163c-0.83656,4.27876-3.22485,8.10313-3.65179,13.27707,4.04856-2.38236,8.29145-3.44934,10.14492-7.68967,2.44884-5.60241,4.98632-11.30882,5.97519-17.28788,1.561-9.43865,5.17426-18.38058,6.31685-27.85789,0.82389-6.834,2.49287-13.88489-1.67347-20.29994-1.60529-2.47174-2.36028-5.44908-4.62108-7.52744a2.20346,2.20346,0,0,1-.21254-3.06372c0.71809-.9136,1.80626-1.81554,3.15207-1.3136,1.27446,0.47525,2.77408,1.12392,3.09344,2.49225,1.27669,5.46984,7.396,8.93829,6.28506,15.41826-0.1322.77113,0.90326,1.69968,1.272,2.6063,2.80692,6.90072,5.82866,13.709,8.57881,20.63953,2.79016,7.0313,4.45825,14.47719,7.96626,21.22327a21.183,21.183,0,0,1,2.48016,5.50335c0.92635,4.23956,1.54612,8.55592,2.284,12.87893a3.02723,3.02723,0,0,0,1.04572-.32677c0.37711-.46809.66671-1.00541,1.0112-1.50128,2.9754-4.28275,2.73276-9.26044,2.93841-14.10059,0.27056-6.36816-1.90219-12.24891-3.63075-18.27763-2.82573-9.85524-6.20588-19.532-7.25626-29.93115-0.79726-7.89333.50583-14.60912,5.26325-20.78828,4.52067-5.87164,10.542-10.54,14.12585-17.12519a24.87849,24.87849,0,0,1,6.38329-7.64912c4.331-3.45266,8.69522-7.0122,13.52612-9.64476,4.29117-2.33845,9.021-3.3674,13.92957-.173,4.85854,3.16184,5.40656,9.7042,10.55322,12.44451a1.24249,1.24249,0,0,1-.06741.6789c-0.84265,3.02808.34644,5.766,0.91924,8.6686a63.80719,63.80719,0,0,1,1.46478,10.08987c0.19476,6.60679,2.49069,12.86639,2.34547,19.48812-0.06274,2.85951,1.9503,5.9149,1.44308,8.58126-0.895,4.70485.524,8.99911,0.86243,13.47384,0.37113,4.90677,2.461,9.64366,1.59608,14.64848-0.37994,2.19848-.7039,4.40657.28439,6.38583,0.44744,0.896-.11378,2.98661,1.34958,2.60124,1.63314-.43009,3.87794-0.17056,4.49725-3.0043,1.87218-8.5667,2.237-17.33521,3.77749-25.91682,1.1066-6.16463-.51235-12.40924,1.29453-18.51389a19.68091,19.68091,0,0,0,.4192-7.24562,85.53854,85.53854,0,0,1,.08656-14.26829c0.54442-7.14986.08771-14.26813,0.03989-21.32423-0.04866-7.1876-1.12571-14.51-1.73467-21.74361-0.93771-11.13843-2.42189-22.1845-4.10479-33.19892-0.73089-4.78368.19391-9.68723-1.39112-14.32706-1.04386-3.05576-1.03578-6.44163-3.664-9.01341-1.64548-1.61014-3.37271.1526-5.00542-1.01-2.12549-1.51354-1.3282-3.76909-2.13959-5.3554-0.7454-1.45732-4.00594-.894-4.97026-3.42584-0.74222-1.94863,1.58189-2.851,1.40781-4.82054-2.54771.66832-4.39847,2.77915-7.25967,0.95982-3.52627-2.2422.77923-4.50755-.55534-6.54-2.191,1.68234-4.42131,3.91912-6.29011-.32643a0.97112,0.97112,0,0,0-1.11124-.74017c-4.00774,1.192-5.26886-1.552-6.166-4.724-1.71677,1.18454-3.08736,2.64638-4.88615,1.09154-1.33168-1.15109-1.05988-3.13359-1.99931-4.85468a10.76926,10.76926,0,0,1-3.11572,2.8225c-2.04879,1.08832-3.97781,1.83765-4.87791-.72566-1.02056-2.90642-1.70247-1.7875-3.04259-.373-3.12566,3.29914-3.97662,3.38035-5.99426-.31938-1.55582-2.85287-2.4912-1.88465-3.86854-.15494-2.29669,2.88429-4.44244,2.74489-6.19922-.40673-0.44346-.79558-0.76847-1.65717-1.29469-2.81a37.31587,37.31587,0,0,0-2.373,3.9391c-2.098,4.729-2.22942,4.78837-6.5541,1.5822-1.06485,1.55772-1.30106,4.03544-3.78284,4.089-2.99794.06473-3.25346-2.81748-4.40666-4.80828-1.36711,2.01008-1.51756,4.26165-2.22,6.32415-0.33291.97754-.69514,2.12342-2.13107,2.29638-1.47217.17731-2.27925-.6598-3.16976-1.57812-0.57219-.59007.18629-1.89025-1.22952-2.04036a23.68351,23.68351,0,0,0-3.01669,8.54734,3.55094,3.55094,0,0,1-3.59586,3.08377c-1.498.0374-2.34843-1.54622-2.24306-3.29,0.03918-.6484.284-1.60356-0.993-1.61127a58.71615,58.71615,0,0,0-4.92929,12.88444c-0.68319,2.75652-2.13593,3.40456-4.53117,2.376-2.6005-1.11667-3.81323-.00976-4.52673,2.41271a12.4129,12.4129,0,0,0-.78582,3.5708c-0.00287,2.91771-.85254,5.199-4.46973,4.91125a1.17192,1.17192,0,0,0-1.5018,1.18561c-0.20491,3.11235-3.38285,4.91217-3.56415,8.07774-0.16116,2.81412-2.12929,3.26973-4.22788,2.506-2.52588-.91924-2.43882.44239-2.348,2.11654,0.12538,2.31136.2384,4.62339,0.36171,7.03231-1.3237-.51065-0.09863-1.935-1.33044-2.50743-0.14283,1.60388-.95691,2.98034-0.58557,4.57126a64.83515,64.83515,0,0,1,28.13073.867c1.0098,0.26269,2.41254,1.17848,3.44784.08585,2.92356-3.08545,6.97553-4.57682,10.08314-7.52824,2.74387-2.606,5.77291-5.19841,9.83-6.20867a3.9508,3.9508,0,0,1,4.25258,1.17272c1.36995,1.28152.838,2.5222,0.3718,4.048a50.67753,50.67753,0,0,0-2.21022,15.58293c0.10334,5.83856-.09212,11.53069-1.70991,17.09657-1.60554,5.52375-1.70792,5.60046,3.64453,8.007,0.89985,0.40458,1.86756.657,2.77254,1.05161,4.0164,1.75152,4.13058,2.94574.413,5.69437,2.67609,2.10854,2.834,4.3592.1804,6.44289,2.01,1.611,4.66267,1.53984,6.478,2.8471,1.43253,1.03157,4.96694-.56548,4.2244,2.1764-0.67264,2.48367-3.72077.65907-5.5862,0.507-2.0587-.16778-4.0348-1.32281-5.92593.94493,2.27257,1.41309,4.38277,2.65,6.39809,4.02579,0.57951,0.3956,2.03824.323,1.43884,1.66374-0.38917.87044-1.29124,0.97524-2.22318,1.05876a4.62962,4.62962,0,0,1-3.12241-.96343c-1.93437-1.37938-3.71244-1.28542-5.73251.03916,0.84164,2.21123,3.34964,2.546,4.55738,4.24635,0.68058,0.95819,2.29566,1.78558,1.12983,3.03907-0.92677.99646-2.25439,0.16445-3.37788-.47937C-619.61658-131.65622-620.86039-133.78214-623.30366-133.97353Zm-2.109-26.18915c-4.4916-3.80564-4.39121-3.78284-2.94585-10.14643,0.40068-1.764.71965-3.59647,0.96-5.42845,1.01022-7.69941-.16035-15.48524,1.1318-23.1449,0.20815-1.23405-.506-2.01194-1.25439-1.37872-4.06817,3.4423-9.58084,5.26878-12.01344,10.55977-0.75,1.63139-1.65684,2.576-3.67569,1.53268a26.88317,26.88317,0,0,0-6.99717-2.16c-9.21325-1.85938-18.55849-2.53307-27.65427.69173-3.36446,1.19282-5.4641.5748-7.47548-2.435-3.313-4.95764-6.70638-9.93769-11.66488-13.492-1.03672-.74315-2.81709-2.47953-3.14954.32363-0.75146,6.33616-4.2433,11.95811-3.33757,18.87016,1.10979,8.46953-.72375,17.25793,2.40713,25.61335a2.6116,2.6116,0,0,1-1.13958,3.29586c-3.32237,1.76559-.797,4.15007-0.37716,5.9057,0.49276,2.06079,2.38776,1.18747,3.937.4289,1.15034-.56327,2.53238-0.9286,3.65195.37693,1.122,1.30841.52641,2.39264-.45726,3.40352,0.96967,0.66241,1.40627-.39386,2.1537-0.416a5.47321,5.47321,0,0,1,4.85583,2.7781c0.8605,1.426-.75929,2.60088-1.95453,3.54929-1.60588,1.27425-3.14276,2.63548-4.70927,3.95938l0.7746,0.90218c3.04249-.11964,6.06079.4712,9.14608-0.52334a6.37167,6.37167,0,0,1,4.67772.40485c9.38458,4.446,19.13333,6.91022,29.43587,3.693a52.6236,52.6236,0,0,1,17.096-2.01537c0.97166,0.02135,2.653-.13385,1.83764-1.34521-1.54874-2.30079-.04516-5.64162-2.88668-7.39689a1.95116,1.95116,0,0,1-.31913-2.9736c0.83663-.97521,1.8862-0.06639,2.65875.44544,1.78025,1.17941,3.4033,2.63568,5.80956,2.88771-1.44646-2.44924-2.90023-4.54131-5.34658-5.785a1.89226,1.89226,0,0,1-1.1224-2.48795c0.56149-1.09587,1.8054-.59549,2.70786-0.50956,1.38027,0.13145,2.14073,1.93036,4.03867,1.62332a8.41075,8.41075,0,0,0-3.50139-3.34709c-0.79669-.42-2.02946-1.16708-1.6704-2.20721,0.392-1.13552,1.70526-.77034,2.536-0.35961,1.00873,0.49875,1.64532.67466,1.75108-.71626C-627.39037-158.603-625.92344-159.04-625.41269-160.16269ZM-524.9334-328.80811c-2.04833,1.815-.86428,4.3355-2.05511,6.076-1.21042,1.7691-.13255,4.64784-3.69994,5.49127-1.82607.43173-1.75117,4.03969-1.542,6.39,0.26969,3.031-1.24514,3.76666-3.86318,3.21249-0.65463-.13857-1.23951-0.92948-2.14128.01713a41.04676,41.04676,0,0,1-1.47144,13.35142c-0.524,1.75915-1.766,3.22468-3.2471,2.97133-3.62746-.62049-3.00652,1.48039-2.44427,3.36469a15.29674,15.29674,0,0,1,.09016,6.99281c-0.29079,1.76553-.20457,3.97924-2.771,4.65817-2.40008.63493-2.23061-2.18907-3.81521-2.62525a38.83285,38.83285,0,0,0,2.75084,14.72912c0.92832,2.46086,1.60416,5.0256.55428,7.9159-0.77987,2.14693-.81127,4.80379,3.15065,4.36772,1.71487-.18875,3.00124.98455,2.6911,3.08945-0.32417,2.20032-.14017,4.08949,2.72653,4.30389a1.13631,1.13631,0,0,1,.86387.5297c1.219,5.86927,5.80064,10.10239,7.59231,15.67795,0.27441,0.854-.13618,2.06331,1.34772,2.14094a19.47041,19.47041,0,0,1,3.16058-8.83305c0.67019-1.06992.44389-1.47451-.51693-1.93089-3.36255-1.59713-3.59276-3.51961-1.11076-6.218,1.13688-1.236,3.93521-2.46168,1.57874-4.73882-1.96628-1.90008-1.23656-3.29283-.1328-5.20467,0.77623-1.34449,2.05158-2.17417,2.76283-3.45376,0.64153-1.15413,2.26334-2.24784-.67651-3.32416-3.27608-1.19942-3.24536-3.32787-.98607-6.17848a60.09156,60.09156,0,0,0,4.32971-6.3898c0.72434-1.20481,1.79057-2.50911-1.09023-2.97257-2.34521-.37729-3.69184-2.01283-1.394-4.51269a15.25827,15.25827,0,0,0,3.67809-6.32182c-5.45306-.71192-5.4725-1.12028-0.546-10.28731-5.90607-1.29625-6.27324-2.163-2.88993-7.42286,1.15853-1.80111,2.88206-3.30321.29821-5.41935-0.70995-.58142-0.37992-2.1096.2896-3.15,1.06865-1.66067,1.35839-2.97647-1.07916-3.88992-1.13148-.424-1.56171-1.62435-1.30362-3.29931C-525.40018-322.58589-524.29439-325.45622-524.9334-328.80811Zm-41.578,174.29821c-2.83537-.46757-4.89752,1.85742-7.37936,3.07771-5.18095,2.54739-6.503,6.30513-5.27092,11.99678a101.25871,101.25871,0,0,1,1.62909,27.681c-0.2431,4.02026-1.46255,8.05939-.454,12.10382,1.76605,7.08215-.08668,13.86324-1.41433,20.72717-0.95329,4.92849-1.61414,9.91548-2.30864,14.88991-0.10494.75172-.5097,1.91988,0.505,2.32212a2.154,2.154,0,0,0,2.51539-1.16226c1.38579-2.185,3.503-3.78506,4.51888-6.29741,2.52541-6.2457,3.29775-12.95018,4.92748-19.40131,2.08431-8.25027,2.53251-16.89079,4.99-25.15981,2.83868-9.55181,4.37981-19.48336,8.35773-28.70389a1.51652,1.51652,0,0,0-.06763-1.66053c-1.54919-2.49057-2.961-5.06865-4.56111-7.5248A6.42316,6.42316,0,0,0-566.51141-154.5099Zm47.475-177.014c-3.16509.07491-1.51847,3.51915-2.65006,5.21182a0.99969,0.99969,0,0,0,.79042,1.3946c0.85934,0.15061,4.24622-3.95848,4.36519-5.17842C-516.37194-331.72551-517.52557-331.448-519.03642-331.5239Zm-300.92979-.44116c0.1531,1.77156,1.83139,2.2923.91569,3.79076-0.64917,1.06231.29666,1.76016,1.42894,1.90788a4.61459,4.61459,0,0,0,3.95578-1.30895c0.46146-.46314-0.59773-1.44449-0.81641-1.318C-817.49355-327.15208-817.85172-330.54669-819.96621-331.96507Z"/><path d="M918.25-329.25a3.42367,3.42367,0,0,1-3.06647,1.106c-9.70477-.527-19.42493-1.42128-29.12256-1.241-8.9361.16611-17.80774-.61512-26.71729-0.743-227.49683-3.26573-455.00436-.79244-682.50558-1.267-227.73331-.47508-455.46817-0.1022-683.20237-0.13088-2.59165-.00033-4.812-0.27849-5.63489,3.22205-0.5956,2.53382-2.30381,4.79756-3.4492,7.21336-0.95281,2.00964-1.8877,3.70039.8288,5.62281,1.761,1.24626.77154,3.94977-.7037,5.40821a14.844,14.844,0,0,0-2.13794,2.41516c-0.84116,1.29938-1.04979,2.16946,1.06849,2.43578,4.7799,0.601,5.21716,1.92312,2.32457,5.95978a30.48465,30.48465,0,0,0-1.7715,3.19935c1.79951,1.45592,4.75774-1.17134,5.81667,2.109,0.51807,1.60488.98664,2.56977-.786,3.8983-2.34435,1.75707-5.06193,3.4884-5.64741,7.255,1.639-.438,3.4257-0.89684,4.24516.7296a4.55764,4.55764,0,0,1-.74238,5.18451c-1.97344,2.38585-3.86437,4.83979-5.80252,7.255-0.90285,1.12507-1.42314,1.99482.56467,2.64091,4.48579,1.458,4.85049,2.49581,2.4348,6.47875-0.636,1.04859-1.54921,1.92525-2.28143,2.92039-0.6102.82931-2.14666,1.304-1.74564,2.47191,0.50906,1.48262,1.8102-.28029,2.5497.20029a9.155,9.155,0,0,1,2.71218,2.45008c0.87053,1.32888-.67163,1.93327-1.32163,2.71716-1.52147,1.83484-4.61373,3.25018-1.06494,6.05176,1.10744,0.87424-.12474,2.00515-0.58065,2.58552-5.85052,7.44759-8.01926,16.33542-9.89326,25.28847-1.663,7.94506-.39294,15.82713.47427,23.82353,0.94027,8.6702,1.95339,17.37206,2.35027,26.14,0.48365,10.68422,1.73781,21.36993,1.1884,32.05489-0.42691,8.30221-.31213,16.61973-1.07382,24.94194-0.48209,5.26705-1.00845,10.65891-1.04556,16.01456-0.0515,7.44056-1.37249,14.74047-2.40642,22.06908-0.89005,6.30865-1.19243,12.70379-3.52368,18.79211-0.88792,2.31887-1.7067,3.31618-4.33523,3.29823-9.55529-.06541-9.45795.0379-10.03477-9.55195-0.25994-4.321-.85929-8.59252.001-12.92585,0.8486-4.27441-1.63307-8.15673-1.68922-12.399-0.04816-3.63728-1.1079-7.25654-1.21523-10.89864a191.73692,191.73692,0,0,0-2.57261-25.05219c-0.52714-3.24612.15076-7.0733-2.43585-10.07661-0.56392.6056-1.46281,1.12553-1.63358,1.82357-1.62529,6.64343-3.07539,13.32946-4.67519,19.97937-3.254,13.52621-4.6002,27.50775-9.72251,40.58949a27.43531,27.43531,0,0,1-8.2641,11.21441,6.78135,6.78135,0,0,1-7.04942.79015c-2.45368-.9697-2.59527-3.25854-2.75372-5.599A28.92363,28.92363,0,0,1-586.09235-72.479c2.08518-5.87411,1.4994-12.1881,3.37285-18.10783,0.5777-1.82549-.52865-4.11909-0.49093-6.19157,0.16113-8.85507.32014-17.71465,0.75948-26.55872,0.31181-6.27654-1.114-12.1878-2.90559-18.60654-3.99467,4.52312-8.03263,8.49053-11.15854,13.28339-2.4803,3.803-6.31089,6.43133-8.93193,10.17252-2.37987,3.39693-2.69382,6.97437-2.41443,10.9108a185.99805,185.99805,0,0,0,2.98709,20.03906c0.78065,4.29719,2.69392,8.40065,4.21415,12.549,3.22575,8.80215,4.94019,17.93282,3.75641,27.19217a27.09144,27.09144,0,0,1-9.83633,17.75958c-1.72222,1.41529-5.104.65037-5.62251-1.38023-1.05354-4.12534-2.91083-8.09807-1.429-12.68639,0.98916-3.063-1.2103-5.86164-2.4958-8.56094-2.75114-5.77693-3.51844-12.18208-5.97491-18.03948-2.46709-5.88268-4.89768-11.78066-7.66908-18.4541-0.73553,8.97137-3.36478,16.79336-5.23587,24.7709-1.68576,7.18751-4.132,14.24123-6.47594,21.29279-2.83847,8.53944-9.67332,11.8353-16.70884,15.29-2.25344,1.10648-4.53438,1.34065-6.43965-.83061a5.23379,5.23379,0,0,1-.46437-6.27944c3.70025-6.15742,5.03986-12.96689,6.59-19.818,2.159-9.5419,1.779-18.947.29425-28.53005-1.289-8.31983-2.63031-16.62312-4.41927-24.84036-1.36292-6.26035-3.0406-12.46623-6.06749-18.19286a1.88929,1.88929,0,0,0-1.76847-1.176c-1.85286.06757-3.28571-1.04633-4.74409-1.873-6.03922-3.42343-12.2903-2.27392-18.5651-1.10541-0.96188.17915-2.25877,0.95423-2.80885,0.58113-5.84894-3.96721-8.00077,2.05627-10.74042,4.51408-2.57167,2.30708-4.40871.97909-6.19438,0.297-1.71138-.65371-0.77764-2.36382.41238-3.26248,2.01847-1.52431,4.14243-2.909,6.50676-4.5499-3.86069-1.76866-6.20936.82052-8.24831,2.64993-2.35593,2.11382-5.22533,3.26193-7.6968,5.11194-1.98975,1.4894-3.849-.81248-4.89725-2.02341-1.3017-1.5038,1.05345-1.65363,1.90166-2.27081,3.67593-2.67464,8.31052-3.69788,11.75327-6.78452,0.51861-.465,1.01111-0.959,1.67495-1.5913-3.89208-1.21053-6.50989,1.28439-9.29114,2.497a6.73835,6.73835,0,0,1-5.2.3633c-1.38845-.41734-2.48022-1.1594-2.488-2.3497-0.0079-1.212,1.10032-2.07648,2.52618-2.226,4.72863-.49583,8.73909-3.11905,13.16361-4.52519a4.75039,4.75039,0,0,0,1.21721-.97364c-4.3935-.361-5.50889-2.28825-4.00447-6.56028a4.17524,4.17524,0,0,0,.30906-2.16877c-1.04573-4.46873,1.64082-6.1574,5.25664-6.68967,3.39437-.49966,3.67656-1.77966,3.28559-5.10637-0.63908-5.43783-.28718-11.07794-0.54252-16.52957-0.46656-9.96128,2.47834-19.027,4.77573-28.34264,0.87955-3.56646,3.42492-4.50568,6.13232-2.07527,5.91357,5.30857,11.43027,10.99445,15.84421,18.15276a120.4643,120.4643,0,0,0,2.75608-15.91745c0.33119-2.68484,1.71138-5.07167,1.68894-7.9055-0.01639-2.06875,2.13916-1.80478,3.53043-1.45564a10.0109,10.0109,0,0,1,2.72964,1.74273,32.0001,32.0001,0,0,0,1.91192-11.55168,3.29329,3.29329,0,0,1,4.83919-2.81462c3.22319,1.8125,3.562.18343,4.18523-2.38775a50.32385,50.32385,0,0,1,2.69591-7.89815,4.31459,4.31459,0,0,1,4.4631-3.02008c3.62693,0.071,4.88039-2.25668,6.06627-4.99159,1.188-2.73988,2.43194-5.29339,6.22585-5.34468,2.0517-.02773,3.93521-0.62107,4.7185-3.59536,0.61085-2.31956,1.97074-6.07127,6.35454-3.93484,1.44317,0.70333,2.61756-.77467,3.02586-2.09343,0.70464-2.276,1.81224-3.09973,4.28172-2.49812a4.91375,4.91375,0,0,0,4.67816-1.22594c1.89022-2.30956,3.88474-2.0299,5.87814-.79982,2.14421,1.32314,3.51881.53146,4.73131-1.12267,1.82813-2.494,3.77319-1.99931,6.13973-.73544,2.41306,1.28872-.87778,3.29019,1.27066,4.35189,1.19353-.85356,3.00659-1.50672,3.98488-3.4379,0.68092-1.3441,2.23366-1.50108,3.63235-1.22614,1.39506,0.27421,1.42408,1.44753,1.56667,2.61623,0.098,0.80306.52682,2.14084,0.96613,2.20829,0.93526,0.14359,1.69125-.701,2.37426-1.50687,2.92-3.44505,4.72169-3.58057,7.71279-.48413,1.12173,1.16125,2.07907.83651,3.28127,0.385,4.79045-1.79914,6.12421-.84318,5.72594,4.092a16.37621,16.37621,0,0,0,3.189-1.66865c1.45958-.73233,3.82487-1.39275,4.3792.6158,0.70313,2.54769,2.164,3.10466,4.307,3.46238a2.319,2.319,0,0,1,2.09415,2.8809c-0.16859.8467-.45744,1.4562,0.68614,1.52253,0.82207,0.04768,1.50774.17011,2.05925-.98159a5.16517,5.16517,0,0,0-.268-4.55133c-2.74109-6.40095-2.42873-13.434-4.31174-20.00068-0.10007-.34906.06127-0.7801-0.05962-1.115-0.78232-2.16756-1.66658-4.83261.96918-5.81689,2.33118-.87055,3.081,2.07656,4.40591,3.54276,0.87527,0.96865,1.1052,2.509,2.53535,3.03915,1.78345-5.27763-.34589-10.64527.74194-15.93564,0.31268-1.52058.63668-2.57433,1.86761-3.01705a2.18253,2.18253,0,0,1,3.03458,1.36881c0.25667,0.71881.6755,1.48565,1.54825,1.27,0.9565-.23634.551-1.21617,0.69747-1.89443,1.11182-5.14847.17844-10.311,0.16873-15.46851-0.004-2.10124,1.80293-2.40454,3.38576-2.311a8.75434,8.75434,0,0,1,2.71722,1.21861c0.58919-2.447,1.22967-4.6574,1.63614-6.91005,0.49608-2.74934.91228-5.42636,4.70068-5.47061H-810.92743c3.72741,1.22017-3.27684,3.43549.1045,4.94461-1.325,1.368-2.31355,3.075-4.05416,4.02428-1.31124,2.34766-1.04714,4.28845,1.45926,5.65013l0.25151,2.81061c-1.20125.28865-2.56429-1.71182-3.74643,0.57009a5.70838,5.70838,0,0,1,4.82608,4.31616c0.11137,0.36366.01213,1.0774,0.82868,0.85993,0.53346-.14208,1.27915-0.66059,1.38517.41859,0.08826,0.89848-.97485.59724-1.30017,1.05506-0.39072.54987-1.699-.37315-1.52357,1.00962a0.8402,0.8402,0,0,0,.93422.89286c2.536-.26837,2.00215,1.551,2.00449,2.945,0.0161,9.55833-.25448,19.10395-0.63154,28.65976-0.487,12.34092.37907,24.74708-.36747,37.06272-0.81573,13.45707-.67934,26.93435-1.46323,40.35585-0.92038,15.7585-.75063,31.52082-1.45875,47.25453-0.52143,11.58571.11437,23.178-.69508,34.71154-0.78346,11.16319-.3229,22.30918-0.6389,33.45694-0.68235,24.07121-.81644,48.14632-0.7689,72.22529,0.01151,5.8304-.7715,11.683-0.47,17.48808,0.70707,13.61167-.49011,27.18562-0.38005,40.78757,0.10692,13.21458-.4641,26.44583-0.72438,39.66962-0.19271,9.79083-.08164,19.6257-0.80554,29.36742-0.89971,12.10762.18449,24.21451-.6986,36.26019-1.00266,13.67674-.01757,27.35527-0.70462,41-1.50746,29.93825-.00148,59.89023-0.7745,89.82051-0.37233,14.41621-.02776,28.86479-0.85984,43.23349-0.85243,14.72021.294,29.43393-.73772,44.09962-0.98213,13.96042-.23594,27.91164-0.57613,41.86166-0.02937,1.20424.38246,2.53377-.73694,3.52322V-312c3.40518-.43556,5.21127-3.31555,4.89806-8.03435-2.15264,2.037-3.81646,1.75967-4.89806-.96565,0-3.24931.08212-6.50171-.04036-9.7464-0.0491-1.30081.22409-1.76468,1.54111-1.52252a10.50349,10.50349,0,0,0,1.87112.01892q867.37728,0,1734.75459-.02634C917.07977-332.27644,919.10492-332.47582,918.25-329.25ZM-623.30366-133.97353c0.64975,4.13029-.92081,6.4975-3.8792,5.42267-4.33669-1.5756-8.75743-.58887-13.1175-1.09506-7.47465-.86776-13.96486,4.41179-21.71957,3.70061,2.55231,7.11376,4.6264,13.90654,5.42338,21.1095,1.23823,11.19115,4.55083,22.04542,4.587,33.49908a118.91117,118.91117,0,0,1-2.37535,23.39163c-0.83656,4.27876-3.22485,8.10313-3.65179,13.27707,4.04856-2.38236,8.29145-3.44934,10.14492-7.68967,2.44884-5.60241,4.98632-11.30882,5.97519-17.28788,1.561-9.43865,5.17426-18.38058,6.31685-27.85789,0.82389-6.834,2.49287-13.88489-1.67347-20.29994-1.60529-2.47174-2.36028-5.44908-4.62108-7.52744a2.20346,2.20346,0,0,1-.21254-3.06372c0.71809-.9136,1.80626-1.81554,3.15207-1.3136,1.27446,0.47525,2.77408,1.12392,3.09344,2.49225,1.27669,5.46984,7.396,8.93829,6.28506,15.41826-0.1322.77113,0.90326,1.69968,1.272,2.6063,2.80692,6.90072,5.82866,13.709,8.57881,20.63953,2.79016,7.0313,4.45825,14.47719,7.96626,21.22327a21.183,21.183,0,0,1,2.48016,5.50335c0.92635,4.23956,1.54612,8.55592,2.284,12.87893a3.02723,3.02723,0,0,0,1.04572-.32677c0.37711-.46809.66671-1.00541,1.0112-1.50128,2.9754-4.28275,2.73276-9.26044,2.93841-14.10059,0.27056-6.36816-1.90219-12.24891-3.63075-18.27763-2.82573-9.85524-6.20588-19.532-7.25626-29.93115-0.79726-7.89333.50583-14.60912,5.26325-20.78828,4.52067-5.87164,10.542-10.54,14.12585-17.12519a24.87849,24.87849,0,0,1,6.38329-7.64912c4.331-3.45266,8.69522-7.0122,13.52612-9.64476,4.29117-2.33845,9.021-3.3674,13.92957-.173,4.85854,3.16184,5.40656,9.7042,10.55322,12.44451a1.24249,1.24249,0,0,1-.06741.6789c-0.84265,3.02808.34644,5.766,0.91924,8.6686a63.80719,63.80719,0,0,1,1.46478,10.08987c0.19476,6.60679,2.49069,12.86639,2.34547,19.48812-0.06274,2.85951,1.9503,5.9149,1.44308,8.58126-0.895,4.70485.524,8.99911,0.86243,13.47384,0.37113,4.90677,2.461,9.64366,1.59608,14.64848-0.37994,2.19848-.7039,4.40657.28439,6.38583,0.44744,0.896-.11378,2.98661,1.34958,2.60124,1.63314-.43009,3.87794-0.17056,4.49725-3.0043,1.87218-8.5667,2.237-17.33521,3.77749-25.91682,1.1066-6.16463-.51235-12.40924,1.29453-18.51389a19.68091,19.68091,0,0,0,.4192-7.24562,85.53854,85.53854,0,0,1,.08656-14.26829c0.54442-7.14986.08771-14.26813,0.03989-21.32423-0.04866-7.1876-1.12571-14.51-1.73467-21.74361-0.93771-11.13843-2.42189-22.1845-4.10479-33.19892-0.73089-4.78368.19391-9.68723-1.39112-14.32706-1.04386-3.05576-1.03578-6.44163-3.664-9.01341-1.64548-1.61014-3.37271.1526-5.00542-1.01-2.12549-1.51354-1.3282-3.76909-2.13959-5.3554-0.7454-1.45732-4.00594-.894-4.97026-3.42584-0.74222-1.94863,1.58189-2.851,1.40781-4.82054-2.54771.66832-4.39847,2.77915-7.25967,0.95982-3.52627-2.2422.77923-4.50755-.55534-6.54-2.191,1.68234-4.42131,3.91912-6.29011-.32643a0.97112,0.97112,0,0,0-1.11124-.74017c-4.00774,1.192-5.26886-1.552-6.166-4.724-1.71677,1.18454-3.08736,2.64638-4.88615,1.09154-1.33168-1.15109-1.05988-3.13359-1.99931-4.85468a10.76926,10.76926,0,0,1-3.11572,2.8225c-2.04879,1.08832-3.97781,1.83765-4.87791-.72566-1.02056-2.90642-1.70247-1.7875-3.04259-.373-3.12566,3.29914-3.97662,3.38035-5.99426-.31938-1.55582-2.85287-2.4912-1.88465-3.86854-.15494-2.29669,2.88429-4.44244,2.74489-6.19922-.40673-0.44346-.79558-0.76847-1.65717-1.29469-2.81a37.31587,37.31587,0,0,0-2.373,3.9391c-2.098,4.729-2.22942,4.78837-6.5541,1.5822-1.06485,1.55772-1.30106,4.03544-3.78284,4.089-2.99794.06473-3.25346-2.81748-4.40666-4.80828-1.36711,2.01008-1.51756,4.26165-2.22,6.32415-0.33291.97754-.69514,2.12342-2.13107,2.29638-1.47217.17731-2.27925-.6598-3.16976-1.57812-0.57219-.59007.18629-1.89025-1.22952-2.04036a23.68351,23.68351,0,0,0-3.01669,8.54734,3.55094,3.55094,0,0,1-3.59586,3.08377c-1.498.0374-2.34843-1.54622-2.24306-3.29,0.03918-.6484.284-1.60356-0.993-1.61127a58.71615,58.71615,0,0,0-4.92929,12.88444c-0.68319,2.75652-2.13593,3.40456-4.53117,2.376-2.6005-1.11667-3.81323-.00976-4.52673,2.41271a12.4129,12.4129,0,0,0-.78582,3.5708c-0.00287,2.91771-.85254,5.199-4.46973,4.91125a1.17192,1.17192,0,0,0-1.5018,1.18561c-0.20491,3.11235-3.38285,4.91217-3.56415,8.07774-0.16116,2.81412-2.12929,3.26973-4.22788,2.506-2.52588-.91924-2.43882.44239-2.348,2.11654,0.12538,2.31136.2384,4.62339,0.36171,7.03231-1.3237-.51065-0.09863-1.935-1.33044-2.50743-0.14283,1.60388-.95691,2.98034-0.58557,4.57126a64.83515,64.83515,0,0,1,28.13073.867c1.0098,0.26269,2.41254,1.17848,3.44784.08585,2.92356-3.08545,6.97553-4.57682,10.08314-7.52824,2.74387-2.606,5.77291-5.19841,9.83-6.20867a3.9508,3.9508,0,0,1,4.25258,1.17272c1.36995,1.28152.838,2.5222,0.3718,4.048a50.67753,50.67753,0,0,0-2.21022,15.58293c0.10334,5.83856-.09212,11.53069-1.70991,17.09657-1.60554,5.52375-1.70792,5.60046,3.64453,8.007,0.89985,0.40458,1.86756.657,2.77254,1.05161,4.0164,1.75152,4.13058,2.94574.413,5.69437,2.67609,2.10854,2.834,4.3592.1804,6.44289,2.01,1.611,4.66267,1.53984,6.478,2.8471,1.43253,1.03157,4.96694-.56548,4.2244,2.1764-0.67264,2.48367-3.72077.65907-5.5862,0.507-2.0587-.16778-4.0348-1.32281-5.92593.94493,2.27257,1.41309,4.38277,2.65,6.39809,4.02579,0.57951,0.3956,2.03824.323,1.43884,1.66374-0.38917.87044-1.29124,0.97524-2.22318,1.05876a4.62962,4.62962,0,0,1-3.12241-.96343c-1.93437-1.37938-3.71244-1.28542-5.73251.03916,0.84164,2.21123,3.34964,2.546,4.55738,4.24635,0.68058,0.95819,2.29566,1.78558,1.12983,3.03907-0.92677.99646-2.25439,0.16445-3.37788-.47937C-619.61658-131.65622-620.86039-133.78214-623.30366-133.97353Zm-2.109-26.18915c-4.4916-3.80564-4.39121-3.78284-2.94585-10.14643,0.40068-1.764.71965-3.59647,0.96-5.42845,1.01022-7.69941-.16035-15.48524,1.1318-23.1449,0.20815-1.23405-.506-2.01194-1.25439-1.37872-4.06817,3.4423-9.58084,5.26878-12.01344,10.55977-0.75,1.63139-1.65684,2.576-3.67569,1.53268a26.88317,26.88317,0,0,0-6.99717-2.16c-9.21325-1.85938-18.55849-2.53307-27.65427.69173-3.36446,1.19282-5.4641.5748-7.47548-2.435-3.313-4.95764-6.70638-9.93769-11.66488-13.492-1.03672-.74315-2.81709-2.47953-3.14954.32363-0.75146,6.33616-4.2433,11.95811-3.33757,18.87016,1.10979,8.46953-.72375,17.25793,2.40713,25.61335a2.6116,2.6116,0,0,1-1.13958,3.29586c-3.32237,1.76559-.797,4.15007-0.37716,5.9057,0.49276,2.06079,2.38776,1.18747,3.937.4289,1.15034-.56327,2.53238-0.9286,3.65195.37693,1.122,1.30841.52641,2.39264-.45726,3.40352,0.96967,0.66241,1.40627-.39386,2.1537-0.416a5.47321,5.47321,0,0,1,4.85583,2.7781c0.8605,1.426-.75929,2.60088-1.95453,3.54929-1.60588,1.27425-3.14276,2.63548-4.70927,3.95938l0.7746,0.90218c3.04249-.11964,6.06079.4712,9.14608-0.52334a6.37167,6.37167,0,0,1,4.67772.40485c9.38458,4.446,19.13333,6.91022,29.43587,3.693a52.6236,52.6236,0,0,1,17.096-2.01537c0.97166,0.02135,2.653-.13385,1.83764-1.34521-1.54874-2.30079-.04516-5.64162-2.88668-7.39689a1.95116,1.95116,0,0,1-.31913-2.9736c0.83663-.97521,1.8862-0.06639,2.65875.44544,1.78025,1.17941,3.4033,2.63568,5.80956,2.88771-1.44646-2.44924-2.90023-4.54131-5.34658-5.785a1.89226,1.89226,0,0,1-1.1224-2.48795c0.56149-1.09587,1.8054-.59549,2.70786-0.50956,1.38027,0.13145,2.14073,1.93036,4.03867,1.62332a8.41075,8.41075,0,0,0-3.50139-3.34709c-0.79669-.42-2.02946-1.16708-1.6704-2.20721,0.392-1.13552,1.70526-.77034,2.536-0.35961,1.00873,0.49875,1.64532.67466,1.75108-.71626C-627.39037-158.603-625.92344-159.04-625.41269-160.16269ZM-524.9334-328.80811c-2.04833,1.815-.86428,4.3355-2.05511,6.076-1.21042,1.7691-.13255,4.64784-3.69994,5.49127-1.82607.43173-1.75117,4.03969-1.542,6.39,0.26969,3.031-1.24514,3.76666-3.86318,3.21249-0.65463-.13857-1.23951-0.92948-2.14128.01713a41.04676,41.04676,0,0,1-1.47144,13.35142c-0.524,1.75915-1.766,3.22468-3.2471,2.97133-3.62746-.62049-3.00652,1.48039-2.44427,3.36469a15.29674,15.29674,0,0,1,.09016,6.99281c-0.29079,1.76553-.20457,3.97924-2.771,4.65817-2.40008.63493-2.23061-2.18907-3.81521-2.62525a38.83285,38.83285,0,0,0,2.75084,14.72912c0.92832,2.46086,1.60416,5.0256.55428,7.9159-0.77987,2.14693-.81127,4.80379,3.15065,4.36772,1.71487-.18875,3.00124.98455,2.6911,3.08945-0.32417,2.20032-.14017,4.08949,2.72653,4.30389a1.13631,1.13631,0,0,1,.86387.5297c1.219,5.86927,5.80064,10.10239,7.59231,15.67795,0.27441,0.854-.13618,2.06331,1.34772,2.14094a19.47041,19.47041,0,0,1,3.16058-8.83305c0.67019-1.06992.44389-1.47451-.51693-1.93089-3.36255-1.59713-3.59276-3.51961-1.11076-6.218,1.13688-1.236,3.93521-2.46168,1.57874-4.73882-1.96628-1.90008-1.23656-3.29283-.1328-5.20467,0.77623-1.34449,2.05158-2.17417,2.76283-3.45376,0.64153-1.15413,2.26334-2.24784-.67651-3.32416-3.27608-1.19942-3.24536-3.32787-.98607-6.17848a60.09156,60.09156,0,0,0,4.32971-6.3898c0.72434-1.20481,1.79057-2.50911-1.09023-2.97257-2.34521-.37729-3.69184-2.01283-1.394-4.51269a15.25827,15.25827,0,0,0,3.67809-6.32182c-5.45306-.71192-5.4725-1.12028-0.546-10.28731-5.90607-1.29625-6.27324-2.163-2.88993-7.42286,1.15853-1.80111,2.88206-3.30321.29821-5.41935-0.70995-.58142-0.37992-2.1096.2896-3.15,1.06865-1.66067,1.35839-2.97647-1.07916-3.88992-1.13148-.424-1.56171-1.62435-1.30362-3.29931C-525.40018-322.58589-524.29439-325.45622-524.9334-328.80811Zm-41.578,174.29821c-2.83537-.46757-4.89752,1.85742-7.37936,3.07771-5.18095,2.54739-6.503,6.30513-5.27092,11.99678a101.25871,101.25871,0,0,1,1.62909,27.681c-0.2431,4.02026-1.46255,8.05939-.454,12.10382,1.76605,7.08215-.08668,13.86324-1.41433,20.72717-0.95329,4.92849-1.61414,9.91548-2.30864,14.88991-0.10494.75172-.5097,1.91988,0.505,2.32212a2.154,2.154,0,0,0,2.51539-1.16226c1.38579-2.185,3.503-3.78506,4.51888-6.29741,2.52541-6.2457,3.29775-12.95018,4.92748-19.40131,2.08431-8.25027,2.53251-16.89079,4.99-25.15981,2.83868-9.55181,4.37981-19.48336,8.35773-28.70389a1.51652,1.51652,0,0,0-.06763-1.66053c-1.54919-2.49057-2.961-5.06865-4.56111-7.5248A6.42316,6.42316,0,0,0-566.51141-154.5099Zm47.475-177.014c-3.16509.07491-1.51847,3.51915-2.65006,5.21182a0.99969,0.99969,0,0,0,.79042,1.3946c0.85934,0.15061,4.24622-3.95848,4.36519-5.17842C-516.37194-331.72551-517.52557-331.448-519.03642-331.5239Zm-300.92979-.44116c0.1531,1.77156,1.83139,2.2923.91569,3.79076-0.64917,1.06231.29666,1.76016,1.42894,1.90788a4.61459,4.61459,0,0,0,3.95578-1.30895c0.46146-.46314-0.59773-1.44449-0.81641-1.318C-817.49355-327.15208-817.85172-330.54669-819.96621-331.96507Z"/><g><path d="M79.53006,17.28147a8.62592,8.62592,0,0,1,.51021-0.90021c0.82975-1.134.70976-1.50927-.64093-1.69274-0.59858-.0813-0.53711-0.3269-0.29546-0.69216a4.20091,4.20091,0,0,1,.61168-0.67731,1.71186,1.71186,0,0,0,.316-0.426c-0.14345-.47248-0.28747-0.9448-0.43574-1.41564a0.73212,0.73212,0,0,1-.16207-0.50855q-0.35894-1.12616-.73414-2.24675a1.02193,1.02193,0,0,1-.51895.37747,0.28285,0.28285,0,0,1-.21971-0.3968c0.2391-.35008.05679-0.97162,0.29991-1.281-0.04545-.13288-0.09024-0.266-0.13594-0.39881Q76.967,7.01148,75.80908,7q-0.16439.16582-.33214,0.32758L75.795,7.33074a1.76245,1.76245,0,0,0-.35678.03422q-0.397.38321-.80811,0.74959a5.10805,5.10805,0,0,0-.18046.75078c-0.12133.63619-.30876,1.2598-0.48234,1.95046a2.47714,2.47714,0,0,0-.76536-0.35243c-0.44757-.03091-0.95964.04982-0.96443,0.64434a20.18325,20.18325,0,0,1-.09125,4.376c-0.04335.19148,0.06863,0.46985-.20266,0.534a0.39836,0.39836,0,0,1-.43448-0.36368,0.61752,0.61752,0,0,0-.85472-0.3958,0.94609,0.94609,0,0,0-.53689.84836c-0.32266,1.49374.2647,3.01841-.25474,4.50658a2.12709,2.12709,0,0,1-.70878-0.867c-0.37075-.41856-0.5746-1.2545-1.23661-1.01475-0.7485.27108-.50581,1.02759-0.29057,1.64305,0.03327,0.09511-.01359.21661,0.01374,0.31565,0.51429,1.86322.40614,3.8522,1.16368,5.67093a1.46147,1.46147,0,0,1,.063,1.28846,0.47055,0.47055,0,0,1-.58537.27194c-0.32338-.022-0.23993-0.19362-0.18985-0.4327a0.65616,0.65616,0,0,0-.5844-0.821,1.24139,1.24139,0,0,1-1.20885-.99173c-0.15119-.56984-0.82226-0.38963-1.23728-0.18654a4.633,4.633,0,0,1-.907.46314c0.12658-1.39518-.24811-1.66941-1.60852-1.17385a0.72413,0.72413,0,0,1-.9273-0.11814c-0.83756-.88449-1.34768-0.85122-2.18354.11528a0.84151,0.84151,0,0,1-.676.41965,0.91067,0.91067,0,0,1-.26714-0.6275,0.65271,0.65271,0,0,0-.43591-0.74463,0.879,0.879,0,0,0-1.03114.3367,2.76623,2.76623,0,0,1-1.13711.96149c-0.60487-.30643.33183-0.86345-0.34728-1.23487a1.1515,1.1515,0,0,0-1.73918.19082,0.88123,0.88123,0,0,1-1.34179.30433,1.128,1.128,0,0,0-1.66535.20976,1.39036,1.39036,0,0,1-1.327.3337,0.86574,0.86574,0,0,0-1.21846.69475,0.68516,0.68516,0,0,1-.862.58379c-1.2343-.61679-1.6296.44086-1.809,1.09541a1.224,1.224,0,0,1-1.3451,1.004A1.89673,1.89673,0,0,0,42.45621,29.798a1.76275,1.76275,0,0,1-1.73038,1.39521,1.22079,1.22079,0,0,0-1.27123.84192,14.23972,14.23972,0,0,0-.785,2.227c-0.18358.72573-.284,1.18568-1.19085,0.6638a0.93183,0.93183,0,0,0-1.37707.78274,9.05448,9.05448,0,0,1-.57343,3.263,2.83265,2.83265,0,0,0-.76739-0.50075c-0.39266-.10269-1.00178-0.18344-1.003.40191a16.36708,16.36708,0,0,1-.50009,2.232,34.08458,34.08458,0,0,1-.82454,4.49577A23.45923,23.45923,0,0,0,28.00153,40.42c-0.75917-.69525-1.482-0.43668-1.74086.56991-0.67619,2.62921-1.53489,5.1859-1.4309,8.00557,0.0569,1.54314-.05851,3.13792.107,4.67824,0.10127,0.94233.01783,1.30368-.944,1.43551-1.02451.14043-1.78938,0.61065-1.50607,1.87792a1.18145,1.18145,0,0,1-.09355.61276c-0.43765,1.20446-.12751,1.75285,1.11453,1.86736a1.34369,1.34369,0,0,1-.34711.272,19.09287,19.09287,0,0,1-3.73712,1.2433,0.70216,0.70216,0,0,0-.721.6227,0.80531,0.80531,0,0,0,.69732.67179,1.90653,1.90653,0,0,0,1.47226-.08816c0.79031-.33526,1.538-1.03379,2.63577-0.68035-0.18959.177-.33032,0.31542-0.47836,0.44552-0.98274.86361-2.29688,1.14009-3.34445,1.88648-0.24172.17224-.90847,0.208-0.54441,0.63713,0.29315,0.34556.81273,1.00206,1.37988,0.58627,0.70447-.51648,1.51953-0.83324,2.192-1.42468,0.582-.51186,1.25382-1.23781,2.34116-0.72656-0.67355.45764-1.27838,0.84342-1.85376,1.269-0.33922.25092-.60822,0.73213-0.12584,0.92189a1.37478,1.37478,0,0,0,1.7534-.06661c0.78205-.68769,1.4078-2.38585,3.05149-1.247a1.691,1.691,0,0,0,.79636-0.15652c1.77861-.313,3.55047-0.6206,5.24951.365a2.56392,2.56392,0,0,0,1.337.54328,0.53458,0.53458,0,0,1,.49705.33771,19.94558,19.94558,0,0,1,1.66551,5.16438c0.483,2.32994.83916,4.683,1.18048,7.04052a21.263,21.263,0,0,1-.16349,8.07121,18.32989,18.32989,0,0,1-1.92026,5.58858,1.48086,1.48086,0,0,0,.11372,1.77795,1.38138,1.38138,0,0,0,1.81963.25312c2.00028-.95766,3.94335-1.87093,4.77045-4.279,0.683-1.98851,1.395-3.97734,1.89213-6.00617a45.96945,45.96945,0,0,0,1.551-6.99371c0.76535,1.8959,1.43644,3.57147,2.11791,5.2428,0.67854,1.66414.87763,3.47851,1.63975,5.12071,0.35612,0.76734.97055,1.56535,0.68206,2.42918-0.43214,1.294.08218,2.42323,0.36865,3.59339a1.06166,1.06166,0,0,0,1.58689.40631,7.66539,7.66539,0,0,0,2.833-4.99706A16.27525,16.27525,0,0,0,54.91,79.58771a22.11822,22.11822,0,0,1-1.157-3.56235,52.62665,52.62665,0,0,1-.78879-5.67806,4.48513,4.48513,0,0,1,.7138-3.0802c0.75211-1.05113,1.84329-1.784,2.55573-2.853a33.88114,33.88114,0,0,1,3.19446-3.72689,16.37066,16.37066,0,0,1,.76975,5.27254c-0.14917,2.501-.21908,5.00721-0.28957,7.51214a7.03249,7.03249,0,0,1,.12148,1.75317c-0.54671,1.66961-.39873,3.45767-1.00521,5.11376a8.18392,8.18392,0,0,0-.51581,3.30392,1.5186,1.5186,0,0,0,.76337,1.59187,1.91874,1.91874,0,0,0,1.99671-.20373,7.76262,7.76262,0,0,0,2.36971-3.14966c1.48605-3.68681,1.90625-7.63884,2.865-11.45666,0.47133-1.877.90041-3.76457,1.37894-5.63963a1.608,1.608,0,0,1,.46733-0.51136c0.72338,0.857.52082,1.93793,0.66084,2.85785a54.25194,54.25194,0,0,1,.6574,7.09526c0.02013,1.03076.30979,2.05774,0.31318,3.087,0.00394,1.20042.69517,2.30583,0.44306,3.5128a14.126,14.126,0,0,0-.03665,3.65711c0.13624,2.71488.109,2.68537,2.81228,2.73076a1.115,1.115,0,0,0,1.23584-.921,23.73742,23.73742,0,0,0,1.04981-5.307,47.06224,47.06224,0,0,0,.74292-6.23725c0.02556-1.51517.18965-3.03921,0.34085-4.52808,0.23892-2.35246.22983-4.70606,0.374-7.0538,0.18549-3.02157-.1393-6.04841-0.24608-9.07266-0.08762-2.48184-.34979-4.9467-0.59145-7.40242a21.31118,21.31118,0,0,1-.06717-6.74174c0.55538-2.52782,1.194-5.03636,2.87023-7.12705,0.13063-.16293.48243-0.47943,0.17155-0.72989-0.99618-.80263-0.11729-1.19438.31833-1.70923,0.18612-.22.62414-0.38663,0.38158-0.76505a2.59,2.59,0,0,0-.76046-0.70083c-0.20788-.13805-0.581.35706-0.72084-0.06385-0.11017-.33156.32587-0.46154,0.50085-0.69447,0.21-.27949.47081-0.525,0.6537-0.81984,0.69466-1.12011.5944-1.41476-.67066-1.83989-0.56059-.1884-0.41095-0.433-0.15234-0.74879,0.55516-.67789,1.09706-1.36686,1.66212-2.03634a1.28955,1.28955,0,0,0,.22462-1.46477,0.91659,0.91659,0,0,0-1.199-.21837,3.17458,3.17458,0,0,1,1.61823-2.03678,0.77,0.77,0,0,0,.23335-1.10074C80.87947,16.96345,80.0351,17.69846,79.53006,17.28147ZM32.4879,61.90555a1.80285,1.80285,0,0,0-1.32232-.1277,9.13272,9.13272,0,0,1-2.58919.12234l-0.21662-.25743c0.44694-.37017.8856-0.751,1.34354-1.107,0.34084-.265.80242-0.59284,0.563-0.99871a1.54859,1.54859,0,0,0-1.36605-.79966c-0.21153.00415-.338,0.30177-0.61051,0.11163a0.63584,0.63584,0,0,0,.13893-0.96167,0.78094,0.78094,0,0,0-1.03218-.11692c-0.44045.21028-.97906,0.452-1.11268-0.13242-0.11384-.4979-0.82164-1.17965.12331-1.66984a0.73893,0.73893,0,0,0,.33169-0.92929c-0.86232-2.37282-.31883-4.85417-0.609-7.25358-0.23683-1.95818.76694-3.539,0.99738-5.32955,0.10193-.79217.60077-0.29588,0.892-0.08272a13.98784,13.98784,0,0,1,3.2624,3.85011,1.55466,1.55466,0,0,0,2.10819.71,14.46174,14.46174,0,0,1,7.82619-.11793,7.60629,7.60629,0,0,1,1.97363.6308,0.66255,0.66255,0,0,0,1.04428-.42331c0.70314-1.49015,2.268-1.99141,3.42867-2.95389,0.21353-.17706.41339,0.045,0.351,0.39361-0.38714,2.1635-.07784,4.36964-0.38531,6.54522-0.07316.51764-.16856,1.03521-0.28689,1.53316-0.42684,1.79639-.45518,1.78966.80494,2.879a2.52283,2.52283,0,0,0-.59841.83638c-0.03384.39324-.21346,0.34168-0.49745,0.19772-0.23391-.11854-0.60443-0.22555-0.71854.09461a0.62513,0.62513,0,0,0,.4664.62919,2.37981,2.37981,0,0,1,.98124.95685c-0.53785.08152-.74794-0.42958-1.13809-0.47065a0.64928,0.64928,0,0,0-.76758.13656,0.53539,0.53539,0,0,0,.31057.70706,3.85084,3.85084,0,0,1,1.49643,1.6518,3.637,3.637,0,0,1-1.63558-.83336c-0.21713-.147-0.51154-0.40707-0.751-0.1335a0.55208,0.55208,0,0,0,.08193.84223c0.799,0.50461.36421,1.4456,0.79592,2.10091,0.22729,0.345-.24885.38421-0.52371,0.37543a14.88965,14.88965,0,0,0-4.84263.52213C37.88188,63.91448,35.13058,63.18985,32.4879,61.90555Zm35.27719-1.27481c-1.1514,2.59758-1.61537,5.40319-2.44539,8.09769-0.71855,2.33265-.86967,4.77605-1.48258,7.10446a41.182,41.182,0,0,1-1.4487,5.47536,11.55749,11.55749,0,0,1-1.29624,1.769,0.60945,0.60945,0,0,1-.71495.32176c-0.286-.11665-0.16815-0.446-0.13635-0.65843,0.21049-1.40546.41149-2.81456,0.69507-4.20631,0.39493-1.93829.9382-3.85165,0.45845-5.86037a11.12155,11.12155,0,0,1,.1625-3.42326,28.65044,28.65044,0,0,0-.38307-7.83637c-0.33258-1.61381.052-2.67327,1.525-3.37943,0.70561-.33827,1.29561-0.99029,2.09649-0.85a1.81735,1.81735,0,0,1,1.68592.83408c0.44583,0.69941.838,1.43279,1.26933,2.14182A0.42909,0.42909,0,0,1,67.76509,60.63074Zm7.55819,7.53167a5.56864,5.56864,0,0,1-.139,2.04882c-0.52839,1.7221-.0879,3.49345-0.41832,5.23449-0.46,2.42367-.58787,4.90353-1.14167,7.322-0.18318.8-.81757,0.72025-1.28086,0.83735-0.4151.10492-.25044-0.485-0.37451-0.73977a2.87146,2.87146,0,0,1-.06249-1.80754c0.25877-1.41358-.31918-2.75967-0.41039-4.149a13.86788,13.86788,0,0,1-.20611-3.81458c0.151-.753-0.40994-1.62309-0.38415-2.432,0.05971-1.87307-.57227-3.65056-0.60879-5.52037a18.05511,18.05511,0,0,0-.38605-2.85884,5.11968,5.11968,0,0,1-.2357-2.45521,0.35148,0.35148,0,0,0,.021-0.19189c-1.44844-.78979-1.5851-2.64236-2.95083-3.55062a3.59524,3.59524,0,0,0-3.94159.00978,27.21928,27.21928,0,0,0-3.85408,2.69076,7.039,7.039,0,0,0-1.82754,2.14621c-1.03251,1.85308-2.74924,3.157-4.0448,4.80551a7.77792,7.77792,0,0,0-1.5476,5.86683,48.36179,48.36179,0,0,0,1.96884,8.48885,16.26572,16.26572,0,0,1,.97584,5.18152c-0.07181,1.36885-.01715,2.77786-0.871,3.98122-0.09886.13932-.18231,0.29054-0.29033,0.42191a0.85661,0.85661,0,0,1-.29678.08952c-0.1966-1.22518-.35981-2.44817-0.61-3.65028a5.99424,5.99424,0,0,0-.68624-1.564A62.79334,62.79334,0,0,1,49.52588,78.526c-0.7586-1.96858-1.59439-3.90335-2.36915-5.86368a2.03512,2.03512,0,0,1-.35257-0.741c0.33255-1.83026-1.389-2.8288-1.73486-4.38a1.21705,1.21705,0,0,0-.86822-0.71383,0.79253,0.79253,0,0,0-.89552.36279,0.62345,0.62345,0,0,0,.05153.86742,9.66582,9.66582,0,0,1,1.28626,2.14273c1.16075,1.82675.66871,3.817,0.41638,5.74819-0.34993,2.6782-1.39737,5.198-1.86558,7.86407A21.07622,21.07622,0,0,1,41.455,88.68723c-0.53634,1.19451-1.73978,1.48445-2.89195,2.14712,0.13535-1.46267.82183-2.538,1.07055-3.74623a33.64507,33.64507,0,0,0,.73785-6.61152c0.022-3.2407-.88474-6.321-1.2036-9.49082A26.09966,26.09966,0,0,0,37.69277,64.998c2.192,0.223,4.04316-1.25246,6.15553-.98593,1.23217,0.15549,2.48571-.11126,3.70826.34673,0.834,0.31242,1.285-.35293,1.1128-1.52333a3.8631,3.8631,0,0,1,1.56315.97469,0.76768,0.76768,0,0,0,.95435.14513c0.33338-.35137-0.12126-0.59-0.31111-0.863-0.33693-.48447-1.04558-0.58624-1.27748-1.21424a1.28981,1.28981,0,0,1,1.622.005,1.3099,1.3099,0,0,0,.88072.28137,0.65487,0.65487,0,0,0,.632-0.29329c0.17337-.37764-0.23956-0.36123-0.40241-0.47477-0.56633-.39492-1.1599-0.75082-1.79889-1.157,0.54143-.63628,1.09727-0.30393,1.67928-0.25067,0.52736,0.04826,1.38464.57307,1.58194-.12776,0.21779-.77367-0.7867-0.33176-1.1891-0.62765-0.50993-.375-1.26064-0.36229-1.82481-0.82375a1.018,1.018,0,0,0-.03293-1.82339c1.05953-.76721,1.03058-1.10542-0.10084-1.61226-0.25493-.1142-0.528-0.18833-0.78147-0.30534-1.50761-.69592-1.47844-0.71734-1.00863-2.27566a16.097,16.097,0,0,0,.53187-4.83233,14.33829,14.33829,0,0,1,.66916-4.40268,0.94012,0.94012,0,0,0-.09382-1.14634,1.11788,1.11788,0,0,0-1.19988-.34376,6.32514,6.32514,0,0,0-2.79867,1.729c-0.88754.82631-2.03815,1.23687-2.874,2.10162a0.89954,0.89954,0,0,1-.97527-0.034,18.34481,18.34481,0,0,0-7.95659-.32442,3.96649,3.96649,0,0,1,.17853-1.29171c0.34691,0.16544-.00372.565,0.36937,0.71318-0.02812-.68191-0.0536-1.33637-0.08257-1.99067-0.021-.47392-0.04178-0.85941.67028-0.59224a0.77588,0.77588,0,0,0,1.20323-.69713c0.06021-.89511.9644-1.39541,1.03112-2.2754a0.33159,0.33159,0,0,1,.42825-0.33122c1.0226,0.09158,1.26942-.55148,1.27844-1.377a3.512,3.512,0,0,1,.23238-1.00808c0.20868-.68339.55491-0.99316,1.28754-0.6699a0.815,0.815,0,0,0,1.28869-.65951,16.61259,16.61259,0,0,1,1.43088-3.63153c0.36129,0.00577.28932,0.27532,0.27641,0.45867a0.76086,0.76086,0,0,0,.62539.93713,1.0047,1.0047,0,0,0,1.026-.86237,6.70112,6.70112,0,0,1,.87756-2.40983c0.40014,0.04646.18189,0.41219,0.34212,0.58075a1.01932,1.01932,0,0,0,.89238.4554,0.75384,0.75384,0,0,0,.60941-0.64371,6.60564,6.60564,0,0,1,.6459-1.78305c0.32068,0.5665.38486,1.38268,1.23324,1.37279,0.70233-.00816.77613-0.70852,1.08178-1.14626,1.21457,0.91929,1.25194.90284,1.85882-.42922a10.55875,10.55875,0,0,1,.68247-1.10781c0.14565,0.32765.23518,0.57233,0.3584,0.79868,0.48818,0.89663,1.09489.9421,1.7528,0.13251,0.39457-.48552.66193-0.75682,1.09409,0.05471,0.56045,1.05245.80145,1.03186,1.69506,0.10723,0.38315-.39643.57922-0.7111,0.8598,0.11409,0.24745,0.72777.79534,0.52118,1.37807,0.219a3.04745,3.04745,0,0,0,.88947-0.78979,4.50219,4.50219,0,0,0,.552,1.37916c0.50457,0.445.89645,0.03521,1.38552-.29509,0.24491,0.9.594,1.67987,1.73127,1.35391a0.27478,0.27478,0,0,1,.31233.21254c0.51679,1.20645,1.1541.57986,1.77874,0.11,0.37186,0.57878-.85266,1.2076.13872,1.85192,0.80441,0.52279,1.334-.06922,2.05669-0.25115,0.04371,0.55773-.61638.8065-0.41188,1.35992,0.26572,0.719,1.1898.56883,1.39661,0.98325,0.22511,0.4511-.00682,1.087.59029,1.52123,0.45867,0.33353.95231-.16035,1.41335,0.29984,0.73636,0.735.72456,1.693,1.01131,2.56048,0.4354,1.31721.16,2.702,0.35329,4.05747,0.44515,3.12106.834,6.25049,1.068,9.40453,0.15195,2.04835.43607,4.12309,0.42962,6.15682-0.00631,1.99652.10289,4.01178-.07125,6.03316A24.20251,24.20251,0,0,0,75.32328,68.16241ZM77.475,23.10468c0.81376,0.13924.50843,0.50526,0.30009,0.8441a17.0006,17.0006,0,0,1-1.243,1.79568c-0.64724.80018-.66191,1.40229,0.26162,1.75087,0.82875,0.31278.36681,0.61766,0.18206,0.94241-0.20483.36-.568,0.59118-0.7914,0.9694a0.99569,0.99569,0,0,0,.02294,1.47293c0.66031,0.65091-.13488.98981-0.46,1.33632-0.70982.75649-.65011,1.30106,0.29677,1.76239,0.27056,0.13184.33345,0.24693,0.14084,0.54777a5.509,5.509,0,0,0-.91907,2.49026c-0.41964-.02614-0.30007-0.36713-0.37529-0.60953-0.49124-1.58254-1.77561-2.79311-2.104-4.45713a0.32154,0.32154,0,0,0-.24291-0.1523c-0.81047-.06871-0.85723-0.60373-0.75932-1.22537a0.68138,0.68138,0,0,0-.75271-0.88166c-1.12217.11222-1.10582-.63939-0.87913-1.24463a3.06865,3.06865,0,0,0-.13457-2.24121,10.98756,10.98756,0,0,1-.73686-4.17506c0.4471,0.12788.39121,0.92639,1.072,0.75349a1.23564,1.23564,0,0,0,.7971-1.31014,4.32806,4.32806,0,0,0-.00584-1.97873c-0.15378-.53472-0.32355-1.13087.701-0.9451a0.96245,0.96245,0,0,0,.92707-0.83156,11.61388,11.61388,0,0,0,.45387-3.77337c0.25779-.2653.42105-0.03987,0.60587,0.00117,0.73917,0.16415,1.16983-.03973,1.10206-0.89806-0.05257-.66557-0.06361-1.68659.45427-1.80359,1.01169-.2286.71482-1.04611,1.06226-1.54324,0.34182-.48909.0139-1.20553,0.59854-1.7133a7.07913,7.07913,0,0,1-.28344,2.57417,0.76067,0.76067,0,0,0,.35955.93714c0.68709,0.2653.60142,0.63676,0.29439,1.1036a0.76831,0.76831,0,0,0-.0908.89042c0.7251,0.606.23324,1.02613-.09962,1.53245-0.972,1.47865-.87058,1.72493.79678,2.10828-1.41964,2.57978-1.4153,2.69538.12554,2.91214A4.317,4.317,0,0,1,77.09325,21.824C76.43609,22.52481,76.81249,22.99134,77.475,23.10468Z"/><path d="M32.73989,57.37074a5.41765,5.41765,0,0,1-4.29115-3.17409,4.697,4.697,0,0,1-.58886-2.19348c0.08733-.68031.32558-1.31806,1.17764-1.09316,2.032,0.53634,4.00975,1.19694,5.41159,2.92793a7.65758,7.65758,0,0,1,1.1564,2.09668,0.75406,0.75406,0,0,1-.59911,1.11683C34.22234,57.05592,33.50986,57.39931,32.73989,57.37074Zm-1.508-4.32283a1.1277,1.1277,0,0,0-1.02464-.55511c-0.23727-.018-0.89839-0.09924-0.798.48082,0.06093,0.35224.321,1.02354,0.71232,0.82063A1.65329,1.65329,0,0,0,31.23189,53.0479Zm1.791,2.72167c0.23924,0.02308.38064-.10078,0.33811-0.29472a1.01936,1.01936,0,0,0-.69746-0.94172,1.07262,1.07262,0,0,0-.54674.807C32.14592,55.85218,32.82273,55.40024,33.02293,55.76957Z"/><path d="M39.83489,58.20924a3.74933,3.74933,0,0,1-.61841-0.01111,1.237,1.237,0,0,1-.93822-2.05738c1.78377-2.45646,4.3266-3.122,7.19088-2.95283,0.534,0.03153.64613,0.36764,0.48655,0.88518A6.17766,6.17766,0,0,1,39.83489,58.20924Zm0.446-1.03226c0.37817-.10223,1.00662.20309,1.05284-0.47734a0.69815,0.69815,0,0,0-.66589-0.78859,1.326,1.326,0,0,0-1.10316.97453C39.44667,57.33887,40.0213,57.04141,40.28088,57.177Zm3.17818-2.57866c-0.159.36352-.91153-0.05151-0.895,0.54179a1.25395,1.25395,0,0,0,.7959.89677,1.33241,1.33241,0,0,0,.75657-1.12761C44.21239,54.54078,43.78822,54.70419,43.45906,54.59832Z"/><path d="M36.09936,61.35776a1.62854,1.62854,0,0,1-1.53306-1.31A1.34974,1.34974,0,0,1,36.07568,58.812a2.01067,2.01067,0,0,1,1.94274,1.29367C38.0558,60.65633,36.97508,61.36146,36.09936,61.35776Z"/></g><text x="0" y="115" fill="#000000" font-size="5px" font-weight="bold" font-family="'Helvetica Neue', Helvetica, Arial-Unicode, Arial, Sans-serif">Created by Olga</text><text x="0" y="120" fill="#000000" font-size="5px" font-weight="bold" font-family="'Helvetica Neue', Helvetica, Arial-Unicode, Arial, Sans-serif">from the Noun Project</text></svg>